<?xml version="1.0" encoding="UTF-8"?>
<svg version="1.1" xmlns="http://www.w3.org/2000/svg" width="500" height="500">
<path d="M0 0 C165 0 330 0 500 0 C500 165 500 330 500 500 C335 500 170 500 0 500 C0 335 0 170 0 0 Z " fill="#FEFEFE" transform="translate(0,0)"/>
<path d="M0 0 C2.475 0.495 2.475 0.495 5 1 C5.27501507 7.19643329 4.22632202 12.87632056 3 18.9375 C2.71382812 20.3925293 2.71382812 20.3925293 2.421875 21.87695312 C1.95378085 24.25253095 1.47969098 26.62674165 1 29 C2.65 29 4.3 29 6 29 C7.65 19.43 9.3 9.86 11 0 C13.475 0.495 13.475 0.495 16 1 C14.9644231 10.39730952 13.88284826 19.72597081 12 29 C13.32 28.67 14.64 28.34 16 28 C16.08636719 27.40832031 16.17273438 26.81664062 16.26171875 26.20703125 C17.24831488 20.65855945 18.43436527 17.65250778 23 14 C25.76250036 12.61874982 27.94731099 12.80920694 31 13 C33 15 33 15 33.5 17.375 C33 20 33 20 30.25 22.3125 C27 24 27 24 23 24 C23.495 26.475 23.495 26.475 24 29 C29.57830016 29.12469099 29.57830016 29.12469099 35 28 C34.9175 26.96875 34.835 25.9375 34.75 24.875 C35.04196308 20.3495723 36.16907717 18.47799091 39 15 C42.24633524 12.8357765 43.24301443 12.62430144 47 13 C47.99 13.66 48.98 14.32 50 15 C50 14.34 50 13.68 50 13 C51.32 13 52.64 13 54 13 C53.34 18.28 52.68 23.56 52 29 C53.32 28.34 54.64 27.68 56 27 C56.48720719 25.01869078 56.96956338 23.03547533 57.390625 21.0390625 C58.40627047 17.6405565 60.18907012 16.06134858 63 14 C66.625 13.0625 66.625 13.0625 70 13 C70.99 13.66 71.98 14.32 73 15 C73.4375 17.4375 73.4375 17.4375 73 20 C70.40112619 22.59887381 67.42430894 23.76344399 64 25 C64.495 26.98 64.495 26.98 65 29 C69.67461851 29.32613618 72.16674383 28.70582788 76 26 C75.875 27.8125 75.875 27.8125 75 30 C70.66380247 32.89079835 67.15981833 33.65670415 62 33 C59.0625 31 59.0625 31 57 29 C53.98848292 30.17114553 52.33059211 31.28947368 50.953125 34.25 C50.48132813 35.549375 50.48132813 35.549375 50 36.875 C48.39820658 41.27510722 46.88253304 44.15912217 43 47 C40.3125 47.4375 40.3125 47.4375 38 47 C36 45 36 45 35.5 42.1875 C36.04782569 38.6951112 36.35818305 38.31528185 38.9375 36.1875 C39.948125 35.465625 40.95875 34.74375 42 34 C42.33 33.67 42.66 33.34 43 33 C42.236875 33.061875 41.47375 33.12375 40.6875 33.1875 C38 33 38 33 36.1875 31.5 C35.795625 31.005 35.40375 30.51 35 30 C34.154375 30.495 33.30875 30.99 32.4375 31.5 C28.57429655 33.18576151 26.17112935 33.46345882 22 33 C19.5625 31.5 19.5625 31.5 18 30 C17.443125 30.495 16.88625 30.99 16.3125 31.5 C13.56674522 33.28103013 12.21390677 33.41203933 9 33 C8.01 32.34 7.02 31.68 6 31 C5.01 31.66 4.02 32.32 3 33 C-0.1875 32.625 -0.1875 32.625 -3 32 C-3.66 29.69 -4.32 27.38 -5 25 C-5.99 25 -6.98 25 -8 25 C-8.2475 25.763125 -8.495 26.52625 -8.75 27.3125 C-10.17560018 30.37754038 -11.00320024 31.46110282 -14 33 C-17.85600245 33.41314312 -20.09971339 33.55402253 -23.4375 31.5 C-23.953125 31.005 -24.46875 30.51 -25 30 C-25.804375 30.495 -26.60875 30.99 -27.4375 31.5 C-31.80001564 33.33684869 -35.33243587 33.91684295 -40 33 C-43.06648634 31.27510144 -45.40285131 29.19429738 -47 26 C-47.71702357 19.01783602 -47.53133589 12.6475594 -43 7 C-39.93520116 4.38045039 -36.86070422 3.15492676 -32.875 2.4375 C-28.8521759 3.22457428 -27.36830023 4.69873301 -25 8 C-25.0736216 11.75470151 -25.32841161 13.32841161 -28 16 C-29.32 16 -30.64 16 -32 16 C-31.67 13.03 -31.34 10.06 -31 7 C-33.33071879 6.58129447 -33.33071879 6.58129447 -36 7 C-40.03687615 11.03687615 -40.84901553 13.92396354 -41.25 19.4375 C-40.9278634 24.31017817 -40.9278634 24.31017817 -38 28 C-33.9617415 28.58263431 -29.70760992 28.85380496 -26 27 C-25.49869796 25.00919273 -25.49869796 25.00919273 -25.1875 22.6875 C-24.4970306 19.34669037 -24.12376545 18.14144623 -21.8125 15.5 C-18.35578772 13.65642012 -15.92758992 13 -12 13 C-9.0625 14.5625 -9.0625 14.5625 -7 17 C-6.6875 20.25 -6.6875 20.25 -7 23 C-4.55275243 21.47155121 -3.20384044 20.60817856 -2.27050781 17.82348633 C-2.16577148 17.00130615 -2.06103516 16.17912598 -1.953125 15.33203125 C-1.76943359 13.99301758 -1.76943359 13.99301758 -1.58203125 12.62695312 C-1.47246094 11.69818359 -1.36289063 10.76941406 -1.25 9.8125 C-1.06244141 8.40194336 -1.06244141 8.40194336 -0.87109375 6.96289062 C-0.56498012 4.64349119 -0.27529816 2.32322469 0 0 Z " fill="#141414" transform="translate(120,213)"/>
<path d="M0 0 C1.78125 1.33984375 1.78125 1.33984375 3 3 C3.4053137 6.24250962 3.54455588 8.15593839 1.75 10.9375 C0 12 0 12 -2.1875 11.6875 C-2.785625 11.460625 -3.38375 11.23375 -4 11 C-3.34 10.01 -2.68 9.02 -2 8 C-1.83286431 5.37468476 -1.83286431 5.37468476 -2 3 C-4.33071879 2.58129447 -4.33071879 2.58129447 -7 3 C-11.79354899 8.05985727 -12.36232879 11.57306315 -12.2734375 18.35546875 C-12.16942572 21.13230287 -12.16942572 21.13230287 -10.4375 23.6875 C-5.98861492 26.0830535 -1.69657131 25.26683831 3 24 C3.02126953 23.11248047 3.02126953 23.11248047 3.04296875 22.20703125 C3.29529749 18.02655783 3.67064619 15.50432302 6 11.9375 C9.56704018 9.63378655 11.76179269 9.47456372 15.9140625 9.53125 C18.49269911 10.1107189 19.43417363 10.89082694 21 13 C21.1875 16.1875 21.1875 16.1875 21 19 C23.01432266 18.49743888 23.01432266 18.49743888 25 17 C26.29920746 13.45411499 26.29920746 13.45411499 27 10 C28.65 10 30.3 10 32 10 C32.495 10.99 32.495 10.99 33 12 C33.99 11.34 34.98 10.68 36 10 C39.125 9.8125 39.125 9.8125 42 10 C42.495 10.495 42.495 10.495 43 11 C42.90968426 13.35694954 42.75311872 15.71153582 42.5625 18.0625 C42.46066406 19.35285156 42.35882813 20.64320313 42.25390625 21.97265625 C42.17011719 22.97167969 42.08632813 23.97070312 42 25 C43.32 24.67 44.64 24.34 46 24 C47.14051606 19.01716284 48.22225866 14.05531868 49 9 C50.65 9.33 52.3 9.66 54 10 C54.495 11.485 54.495 11.485 55 13 C55.37125 12.505 55.7425 12.01 56.125 11.5 C58.76701674 9.38638661 60.71137147 9.7140323 64 10 C65 11 65 11 65.1328125 13.14453125 C65.13023437 14.02496094 65.12765625 14.90539062 65.125 15.8125 C65.12886719 17.12154297 65.12886719 17.12154297 65.1328125 18.45703125 C65.01114834 20.78654215 64.65514709 22.76938015 64 25 C65.32 24.67 66.64 24.34 68 24 C68.12955078 22.98679688 68.12955078 22.98679688 68.26171875 21.953125 C69.3971504 14.74469657 69.3971504 14.74469657 72.125 11.375 C76.09680618 9.47544052 78.61809202 9.56899266 83 10 C83.99 10.99 83.99 10.99 85 12 C84.9375 14.4375 84.9375 14.4375 84 17 C80.66753954 19.68448204 78.23795734 20.36325349 74 20 C75.0645852 22.60943058 75.0645852 22.60943058 77 25 C81.08600528 25.59587577 82.52648925 25.31567384 86 23 C86.64934531 20.94370543 86.64934531 20.94370543 86.9375 18.625 C87.52461182 15.73137746 88.00540944 13.99112852 89.5625 11.4375 C93.21844013 9.28143274 96.84796022 9.48625877 101 10 C102 11 102 11 102.0625 14.0625 C102.041875 15.031875 102.02125 16.00125 102 17 C100.68 17.33 99.36 17.66 98 18 C98.33 16.02 98.66 14.04 99 12 C96.52733235 12.34444881 96.52733235 12.34444881 94 13 C92.88554502 15.22890995 92.83519714 16.53055106 92.8125 19 C92.79832031 19.70125 92.78414063 20.4025 92.76953125 21.125 C92.83487677 23.24524938 92.83487677 23.24524938 95 25 C99.05261287 25.34490322 100.54754176 25.30163882 104 23 C105.02110539 20.12883998 105.02110539 20.12883998 105.6875 16.875 C105.93886719 15.77929688 106.19023437 14.68359375 106.44921875 13.5546875 C106.63097656 12.71164063 106.81273437 11.86859375 107 11 C106.01 11 105.02 11 104 11 C104 10.34 104 9.68 104 9 C105.32 9 106.64 9 108 9 C108 7.35 108 5.7 108 4 C109.65 4.33 111.3 4.66 113 5 C113 6.32 113 7.64 113 9 C113.99 9 114.98 9 116 9 C116 9.66 116 10.32 116 11 C114.68 11.33 113.36 11.66 112 12 C111.34 16.29 110.68 20.58 110 25 C112.31 24.34 114.62 23.68 117 23 C115.63016497 26.16115776 115.0109362 26.9927092 112 29 C106.55555556 28.55555556 106.55555556 28.55555556 104 26 C103.13375 26.495 102.2675 26.99 101.375 27.5 C97.81315532 29.08304208 95.83760291 29.5005569 92 29 C89.625 27.5 89.625 27.5 88 26 C87.38125 26.309375 86.7625 26.61875 86.125 26.9375 C81.99568001 29.00215999 78.62373152 29.53044721 74 29 C71 27.5 71 27.5 69 26 C68.608125 26.495 68.21625 26.99 67.8125 27.5 C66 29 66 29 63.4375 29.3125 C61 29 61 29 59 27 C58.76953125 24.7578125 58.76953125 24.7578125 58.8125 22.125 C58.81894531 21.26132813 58.82539063 20.39765625 58.83203125 19.5078125 C58.98606333 17.20807774 59.35838224 15.20716511 60 13 C56.23907203 15.67223829 54.2487395 17.52535014 53 22 C52.6186926 24.32597511 52.27539746 26.65912158 52 29 C50.35 29 48.7 29 47 29 C46.505 28.01 46.505 28.01 46 27 C45.01 27.66 44.02 28.32 43 29 C38.45945946 28.45945946 38.45945946 28.45945946 37 27 C36.66756921 22.26774995 36.81106725 17.60711442 38 13 C35.46734428 13.99288599 34.22096774 14.6429442 32.76953125 16.98828125 C30.34446139 22.83170516 30.34446139 22.83170516 29 29 C27.68 29 26.36 29 25 29 C25 26.03 25 23.06 25 20 C21.02423316 21.98713841 21.02423316 21.98713841 18.375 25.0625 C16 28 16 28 14 29 C10.5 29.1875 10.5 29.1875 7 29 C6.34 28.34 5.68 27.68 5 27 C2.38419521 27.3269756 0.35921863 27.82039068 -2 29 C-6.21226823 29.43032996 -9.91059104 29.42629046 -13.875 27.875 C-17.76224975 24.44507375 -18.86195211 21.22270991 -19.4375 16.125 C-19.1911473 10.27972222 -16.59386021 5.87512966 -12.875 1.5 C-8.73202051 -0.66155452 -4.58621688 -0.86283063 0 0 Z " fill="#0E0E0E" transform="translate(311,218)"/>
<path d="M0 0 C2 2 2 2 2.5 4.375 C2 7 2 7 -0.75 9.3125 C-4 11 -4 11 -8 11 C-7.67 12.65 -7.34 14.3 -7 16 C-1.42169984 16.12469099 -1.42169984 16.12469099 4 15 C3.9175 13.96875 3.835 12.9375 3.75 11.875 C4.04196308 7.3495723 5.16907717 5.47799091 8 2 C11.24633524 -0.1642235 12.24301443 -0.37569856 16 0 C16.99 0.66 17.98 1.32 19 2 C19 1.34 19 0.68 19 0 C20.32 0 21.64 0 23 0 C22.34 5.28 21.68 10.56 21 16 C22.32 15.34 23.64 14.68 25 14 C25.48720719 12.01869078 25.96956338 10.03547533 26.390625 8.0390625 C27.40627047 4.6405565 29.18907012 3.06134858 32 1 C35.625 0.0625 35.625 0.0625 39 0 C39.99 0.66 40.98 1.32 42 2 C42.4375 4.4375 42.4375 4.4375 42 7 C39.40112619 9.59887381 36.42430894 10.76344399 33 12 C33.495 13.98 33.495 13.98 34 16 C38.67461851 16.32613618 41.16674383 15.70582788 45 13 C44.875 14.8125 44.875 14.8125 44 17 C39.66380247 19.89079835 36.15981833 20.65670415 31 20 C28.0625 18 28.0625 18 26 16 C22.98848292 17.17114553 21.33059211 18.28947368 19.953125 21.25 C19.48132813 22.549375 19.48132813 22.549375 19 23.875 C17.39820658 28.27510722 15.88253304 31.15912217 12 34 C9.3125 34.4375 9.3125 34.4375 7 34 C5 32 5 32 4.5 29.1875 C5.04782569 25.6951112 5.35818305 25.31528185 7.9375 23.1875 C8.948125 22.465625 9.95875 21.74375 11 21 C11.33 20.67 11.66 20.34 12 20 C11.236875 20.061875 10.47375 20.12375 9.6875 20.1875 C7 20 7 20 5.1875 18.5 C4.795625 18.005 4.40375 17.51 4 17 C3.154375 17.495 2.30875 17.99 1.4375 18.5 C-2.46250075 20.20181851 -4.79389276 20.623127 -9 20 C-11.7005597 17.85340127 -12.76254389 16.23880404 -13.4140625 12.83984375 C-13.69494771 8.4122058 -13.45073472 6.56934911 -10.625 3 C-6.8084681 0.09216617 -4.79788625 -0.29986789 0 0 Z " fill="#131313" transform="translate(151,226)"/>
<path d="M0 0 C4.20606721 3.89534873 7.21710501 8.06781429 10.3125 12.875 C15.85395547 21.33948911 21.58913464 29.65569217 27.3918457 37.94287109 C28.66373225 39.76149475 29.93016052 41.58395106 31.19042969 43.41064453 C32.39182782 45.12975254 33.62176104 46.82928388 34.87988281 48.50732422 C35.44803711 49.28736816 36.01619141 50.06741211 36.6015625 50.87109375 C37.36847412 51.88901001 37.36847412 51.88901001 38.15087891 52.92749023 C39 55 39 55 38.32885742 57.47167969 C37.03387394 59.93555052 35.67031586 62.25937567 34.13671875 64.58203125 C33.57919922 65.43216797 33.02167969 66.28230469 32.44726562 67.15820312 C31.86654297 68.03412109 31.28582031 68.91003906 30.6875 69.8125 C29.54490771 71.54773925 28.40297208 73.28341108 27.26171875 75.01953125 C26.50314575 76.16578979 26.50314575 76.16578979 25.72924805 77.33520508 C23.44108798 80.86129107 21.22782196 84.43548486 19 88 C25.6 88 32.2 88 39 88 C39.66 86.35 40.32 84.7 41 83 C42.55306812 80.15917957 44.28320159 77.43192489 46 74.6875 C46.67675781 73.57665039 46.67675781 73.57665039 47.3671875 72.44335938 C47.80289063 71.74404297 48.23859375 71.04472656 48.6875 70.32421875 C49.08324219 69.68572998 49.47898438 69.04724121 49.88671875 68.3894043 C50.25410156 67.93090088 50.62148437 67.47239746 51 67 C51.66 67 52.32 67 53 67 C54.86708601 70.45150916 56.71642907 73.91221165 58.5625 77.375 C59.09552734 78.35984375 59.62855469 79.3446875 60.17773438 80.359375 C60.67724609 81.30039062 61.17675781 82.24140625 61.69140625 83.2109375 C62.15748291 84.08024902 62.62355957 84.94956055 63.10375977 85.84521484 C63.39951904 86.55629395 63.69527832 87.26737305 64 88 C63.67 88.66 63.34 89.32 63 90 C62.46890625 89.18015625 61.9378125 88.3603125 61.390625 87.515625 C60.68421875 86.43796875 59.9778125 85.3603125 59.25 84.25 C58.20585937 82.64898437 58.20585937 82.64898437 57.140625 81.015625 C55.26146868 78.36834639 53.37204457 76.2010864 51 74 C50.34 75.98 49.68 77.96 49 80 C46.69 84.29 44.38 88.58 42 93 C31.44 93 20.88 93 10 93 C11.59953211 89.80093578 13.2222049 87.08027134 15.23046875 84.1484375 C15.86919922 83.21386719 16.50792969 82.27929688 17.16601562 81.31640625 C17.83310547 80.34574219 18.50019531 79.37507813 19.1875 78.375 C20.15913086 76.95380859 20.15913086 76.95380859 21.15039062 75.50390625 C22.1181543 74.09044922 22.1181543 74.09044922 23.10546875 72.6484375 C23.74403809 71.70838867 24.38260742 70.76833984 25.04052734 69.79980469 C26.35379315 67.92333668 27.71484416 66.07947965 29.11962891 64.27050781 C29.77753418 63.41038086 30.43543945 62.55025391 31.11328125 61.6640625 C32.01687378 60.53025146 32.01687378 60.53025146 32.9387207 59.37353516 C34.29102771 56.96779631 34.29102771 56.96779631 33.39868164 54.05883789 C31.97949012 50.95514606 30.40207846 48.23251358 28.5078125 45.39453125 C27.8080127 44.3370166 27.10821289 43.27950195 26.38720703 42.18994141 C25.63316034 41.06411266 24.87909088 39.93829915 24.125 38.8125 C22.5803411 36.48504982 21.04032425 34.1545391 19.5 31.82421875 C19.11643341 31.24534912 18.73286682 30.66647949 18.337677 30.07006836 C14.3475718 24.03875363 10.49371696 17.92503186 6.66845703 11.78833008 C4.91401741 8.98319653 3.18955289 6.24812718 1.1796875 3.6171875 C0 2 0 2 0 0 Z " fill="#171717" transform="translate(196,177)"/>
<path d="M0 0 C2.92842849 0.0367117 5.83298139 0.21917907 8.75390625 0.421875 C10.26345976 0.48213403 11.77324422 0.53687569 13.28320312 0.5859375 C16.96577074 0.71756008 20.63961214 0.92415112 24.31640625 1.171875 C19.76714225 8.44826091 15.03249263 15.54920783 10.06640625 22.546875 C8.85127799 24.2618978 7.63768416 25.97800903 6.42578125 27.6953125 C5.6363916 28.807854 5.6363916 28.807854 4.83105469 29.94287109 C4.3312207 30.67844238 3.83138672 31.41401367 3.31640625 32.171875 C2.41583496 33.39318115 2.41583496 33.39318115 1.49707031 34.63916016 C0.01948086 37.11325081 0.01948086 37.11325081 0.95166016 39.69482422 C2.28765915 42.11969825 3.65138216 44.47797922 5.15234375 46.8046875 C5.71687256 47.68479492 6.28140137 48.56490234 6.86303711 49.47167969 C7.46639893 50.40399414 8.06976074 51.33630859 8.69140625 52.296875 C9.95056856 54.26299027 11.20968218 56.22913672 12.46875 58.1953125 C14.36276824 61.14135047 16.26016405 64.08506736 18.16455078 67.02441406 C19.86725163 69.65293224 21.5609472 72.28707645 23.25390625 74.921875 C23.77968262 75.72512207 24.30545898 76.52836914 24.84716797 77.35595703 C25.32041504 78.09442871 25.79366211 78.83290039 26.28125 79.59375 C26.70011475 80.23924805 27.11897949 80.88474609 27.55053711 81.54980469 C27.80327393 82.08508789 28.05601074 82.62037109 28.31640625 83.171875 C27.98640625 83.831875 27.65640625 84.491875 27.31640625 85.171875 C22.28481147 78.02804078 17.31970297 70.83958117 12.37890625 63.6328125 C10.17884807 60.42391185 7.96845069 57.22235649 5.75390625 54.0234375 C4.56634041 52.30212876 3.37883928 50.58077536 2.19140625 48.859375 C1.62276855 48.04090088 1.05413086 47.22242676 0.46826172 46.37915039 C-0.05880371 45.6133667 -0.58586914 44.84758301 -1.12890625 44.05859375 C-1.59828613 43.38014404 -2.06766602 42.70169434 -2.55126953 42.00268555 C-3.68359375 40.171875 -3.68359375 40.171875 -4.68359375 37.171875 C-3.80664062 35.26171875 -3.80664062 35.26171875 -2.40234375 33.109375 C-1.8928418 32.31700439 -1.38333984 31.52463379 -0.85839844 30.70825195 C-0.30571289 29.87124756 0.24697266 29.03424316 0.81640625 28.171875 C1.36651367 27.32133545 1.91662109 26.4707959 2.48339844 25.59448242 C3.58192165 23.89680876 4.68440148 22.20168813 5.79101562 20.50927734 C7.74331028 17.517717 9.65649181 14.50314472 11.56640625 11.484375 C12.48271324 10.0466457 13.39920725 8.6090354 14.31640625 7.171875 C8.01374853 6.04451677 1.4664486 4.89723561 -4.68359375 7.171875 C-10.2870959 12.20119926 -13.5847215 19.41620111 -16.68359375 26.171875 C-20.44642163 24.91759904 -20.62515505 23.93374868 -22.3828125 20.48046875 C-23.11274414 19.06411133 -23.11274414 19.06411133 -23.85742188 17.61914062 C-24.35693359 16.62591797 -24.85644531 15.63269531 -25.37109375 14.609375 C-25.88220703 13.61228516 -26.39332031 12.61519531 -26.91992188 11.58789062 C-28.18328113 9.12020759 -29.43735044 6.64823415 -30.68359375 4.171875 C-30.02359375 3.841875 -29.36359375 3.511875 -28.68359375 3.171875 C-27.98492187 4.24308594 -27.28625 5.31429687 -26.56640625 6.41796875 C-25.6473794 7.81526467 -24.72809522 9.21239136 -23.80859375 10.609375 C-23.11830078 11.66995117 -23.11830078 11.66995117 -22.4140625 12.75195312 C-21.96933594 13.42548828 -21.52460938 14.09902344 -21.06640625 14.79296875 C-20.65793457 15.4161499 -20.24946289 16.03933105 -19.82861328 16.68139648 C-18.73673749 18.32732127 -18.73673749 18.32732127 -16.68359375 19.171875 C-16.40717041 18.31239258 -16.13074707 17.45291016 -15.84594727 16.56738281 C-10.23253372 0.16928251 -10.23253372 0.16928251 0 0 Z " fill="#101010" transform="translate(265.68359375,194.828125)"/>
<path d="M0 0 C2.475 0.495 2.475 0.495 5 1 C5 2.32 5 3.64 5 5 C5.99 5 6.98 5 8 5 C8 5.66 8 6.32 8 7 C6.68 7.33 5.36 7.66 4 8 C3.34 12.29 2.68 16.58 2 21 C4.31 20.34 6.62 19.68 9 19 C7.63016497 22.16115776 7.0109362 22.9927092 4 25 C-1.44444444 24.55555556 -1.44444444 24.55555556 -4 22 C-4.86625 22.495 -5.7325 22.99 -6.625 23.5 C-10.18684468 25.08304208 -12.16239709 25.5005569 -16 25 C-18.375 23.5 -18.375 23.5 -20 22 C-20.61875 22.309375 -21.2375 22.61875 -21.875 22.9375 C-25.99667734 24.99833867 -29.38085482 25.65865589 -34 25 C-36.31049784 23.88843696 -37.97849628 22.61720298 -40 21 C-39.74610842 15.17318823 -39.38883987 11.25584472 -35 7 C-32.77109005 5.88554502 -31.46944894 5.83519714 -29 5.8125 C-28.29875 5.79832031 -27.5975 5.78414062 -26.875 5.76953125 C-25 6 -25 6 -23 8 C-23.0625 10.4375 -23.0625 10.4375 -24 13 C-27.33246046 15.68448204 -29.76204266 16.36325349 -34 16 C-32.9354148 18.60943058 -32.9354148 18.60943058 -31 21 C-26.91399472 21.59587577 -25.47351075 21.31567384 -22 19 C-21.35065469 16.94370543 -21.35065469 16.94370543 -21.0625 14.625 C-20.47538818 11.73137746 -19.99459056 9.99112852 -18.4375 7.4375 C-14.78155987 5.28143274 -11.15203978 5.48625877 -7 6 C-6 7 -6 7 -5.9375 10.0625 C-5.958125 11.031875 -5.97875 12.00125 -6 13 C-7.32 13.33 -8.64 13.66 -10 14 C-9.67 12.02 -9.34 10.04 -9 8 C-11.47266765 8.34444881 -11.47266765 8.34444881 -14 9 C-15.11445498 11.22890995 -15.16480286 12.53055106 -15.1875 15 C-15.20876953 16.051875 -15.20876953 16.051875 -15.23046875 17.125 C-15.16512323 19.24524938 -15.16512323 19.24524938 -13 21 C-8.94738713 21.34490322 -7.45245824 21.30163882 -4 19 C-2.97889461 16.12883998 -2.97889461 16.12883998 -2.3125 12.875 C-1.93544922 11.23144531 -1.93544922 11.23144531 -1.55078125 9.5546875 C-1.36902344 8.71164063 -1.18726563 7.86859375 -1 7 C-1.99 7 -2.98 7 -4 7 C-4 6.34 -4 5.68 -4 5 C-2.68 5 -1.36 5 0 5 C0 3.35 0 1.7 0 0 Z " fill="#101010" transform="translate(419,222)"/>
<path d="M0 0 C1.78125 1.33984375 1.78125 1.33984375 3 3 C3.4053137 6.24250962 3.54455588 8.15593839 1.75 10.9375 C0 12 0 12 -2.1875 11.6875 C-2.785625 11.460625 -3.38375 11.23375 -4 11 C-3.34 10.01 -2.68 9.02 -2 8 C-1.83286431 5.37468476 -1.83286431 5.37468476 -2 3 C-4.33071879 2.58129447 -4.33071879 2.58129447 -7 3 C-11.79354899 8.05985727 -12.36232879 11.57306315 -12.2734375 18.35546875 C-12.16942572 21.13230287 -12.16942572 21.13230287 -10.4375 23.6875 C-5.98861492 26.0830535 -1.69657131 25.26683831 3 24 C3.02126953 23.11248047 3.02126953 23.11248047 3.04296875 22.20703125 C3.30034701 17.9428995 3.64038392 15.51827024 6.125 11.9375 C9.66675792 9.55066314 11.81225209 9.58943648 16 10 C16.08160748 11.89510699 16.13946459 13.79124504 16.1875 15.6875 C16.23970703 17.27111328 16.23970703 17.27111328 16.29296875 18.88671875 C15.9656897 22.36460416 14.8535516 24.10033435 13 27 C13.495 27.99 13.495 27.99 14 29 C10.625 29.125 10.625 29.125 7 29 C6.34 28.34 5.68 27.68 5 27 C2.38419521 27.3269756 0.35921863 27.82039068 -2 29 C-6.21226823 29.43032996 -9.91059104 29.42629046 -13.875 27.875 C-17.76224975 24.44507375 -18.86195211 21.22270991 -19.4375 16.125 C-19.1911473 10.27972222 -16.59386021 5.87512966 -12.875 1.5 C-8.73202051 -0.66155452 -4.58621688 -0.86283063 0 0 Z " fill="#131313" transform="translate(311,218)"/>
<path d="M0 0 C1.65 0.33 3.3 0.66 5 1 C5.27501507 7.19643329 4.22632202 12.87632056 3 18.9375 C2.80921875 19.90751953 2.6184375 20.87753906 2.421875 21.87695312 C1.95378085 24.25253095 1.47969098 26.62674165 1 29 C2.65 29 4.3 29 6 29 C7.65 19.43 9.3 9.86 11 0 C13.475 0.495 13.475 0.495 16 1 C14.9644231 10.39730952 13.88284826 19.72597081 12 29 C13.32 28.67 14.64 28.34 16 28 C16.33 25.69 16.66 23.38 17 21 C17.33 21 17.66 21 18 21 C19.12353516 26.18554688 19.12353516 26.18554688 19 29 C16.58152035 31.84527017 15.07156272 32.84691961 11.375 33.375 C9 33 9 33 6 31 C5.01 31.66 4.02 32.32 3 33 C-0.1875 32.625 -0.1875 32.625 -3 32 C-3.19401633 30.18818595 -3.38004375 28.37551468 -3.5625 26.5625 C-3.66691406 25.55316406 -3.77132812 24.54382813 -3.87890625 23.50390625 C-3.91886719 22.67761719 -3.95882812 21.85132813 -4 21 C-3.67 20.67 -3.34 20.34 -3 20 C-2.70420295 18.51730105 -2.4625458 17.02368615 -2.24609375 15.52734375 C-2.11396484 14.62822266 -1.98183594 13.72910156 -1.84570312 12.80273438 C-1.64364258 11.38444336 -1.64364258 11.38444336 -1.4375 9.9375 C-1.29892578 8.98810547 -1.16035156 8.03871094 -1.01757812 7.06054688 C-0.67467814 4.7075435 -0.33566063 2.35404517 0 0 Z " fill="#161616" transform="translate(120,213)"/>
<path d="M0 0 C6.34507042 0.59859155 6.34507042 0.59859155 8.9375 2.1875 C10.47273259 4.80642619 10.1980568 7.02914805 10 10 C10.99 9.67 11.98 9.34 13 9 C14 10 14 10 14.0625 13.5625 C14.041875 14.696875 14.02125 15.83125 14 17 C13.67 17 13.34 17 13 17 C12.67 15.35 12.34 13.7 12 12 C11.01 12 10.02 12 9 12 C8.7525 12.763125 8.505 13.52625 8.25 14.3125 C6.82439982 17.37754038 5.99679976 18.46110282 3 20 C-0.75 20.1875 -0.75 20.1875 -4 20 C-3.34 19.67 -2.68 19.34 -2 19 C-2.33 18.34 -2.66 17.68 -3 17 C-3.5693016 11.42741316 -3.30006124 7.67508675 0 3 C0 2.01 0 1.02 0 0 Z " fill="#191919" transform="translate(103,226)"/>
<path d="M0 0 C1 1 1 1 1.3125 3.375 C1 6 1 6 -0.6875 7.6875 C-3.06753047 9.0383281 -5.42772954 10.07112456 -8 11 C-7.67 12.32 -7.34 13.64 -7 15 C-2.32538149 15.32613618 0.16674383 14.70582788 4 12 C3.875 13.8125 3.875 13.8125 3 16 C-1.31988403 18.87992268 -4.85773411 19.74796595 -10 19 C-12.9375 16.9375 -12.9375 16.9375 -15 14 C-15.71170236 9.65070783 -15.31130352 7.58925309 -13.25 3.6875 C-9.00380027 -1.38434968 -6.44441218 -1.33751951 0 0 Z " fill="#131313" transform="translate(192,227)"/>
<path d="M0 0 C1.051875 -0.02126953 1.051875 -0.02126953 2.125 -0.04296875 C4 0.1875 4 0.1875 6 2.1875 C5.9375 4.625 5.9375 4.625 5 7.1875 C1.66753954 9.87198204 -0.76204266 10.55075349 -5 10.1875 C-3.9354148 12.79693058 -3.9354148 12.79693058 -2 15.1875 C1.95063669 15.7758927 4.60929907 15.27408519 8 13.1875 C8.33 13.8475 8.66 14.5075 9 15.1875 C4.96717958 18.41375634 2.18395427 19.83445174 -3.03125 19.59375 C-6.33012047 18.9130307 -8.39031507 17.27524795 -11 15.1875 C-10.74610842 9.36068823 -10.38883987 5.44334472 -6 1.1875 C-3.77109005 0.07304502 -2.46944894 0.02269714 0 0 Z " fill="#111111" transform="translate(390,227.8125)"/>
<path d="M0 0 C3.875 1.875 3.875 1.875 5 3 C5.04080783 4.99958364 5.04254356 7.00045254 5 9 C7.01432266 8.49743888 7.01432266 8.49743888 9 7 C10.29920746 3.45411499 10.29920746 3.45411499 11 0 C12.65 0 14.3 0 16 0 C16 0.99 16 1.98 16 3 C16.99 3.33 17.98 3.66 19 4 C18.65066406 4.66386719 18.30132812 5.32773438 17.94140625 6.01171875 C17.48636719 6.89472656 17.03132813 7.77773437 16.5625 8.6875 C16.11003906 9.55761719 15.65757812 10.42773438 15.19140625 11.32421875 C14.04008072 13.90998264 13.43679247 16.21356528 13 19 C11.68 19 10.36 19 9 19 C9 16.03 9 13.06 9 10 C4.86588612 11.6991339 4.86588612 11.6991339 2.625 15.125 C0 18 0 18 -3.3125 18.375 C-4.199375 18.25125 -5.08625 18.1275 -6 18 C-5.360625 17.443125 -4.72125 16.88625 -4.0625 16.3125 C-1.67059129 13.63066297 -1.3918734 12.52686063 -1 9 C-0.90976562 8.23429688 -0.81953125 7.46859375 -0.7265625 6.6796875 C-0.46846581 4.45447553 -0.22818534 2.22844832 0 0 Z " fill="#0E0E0E" transform="translate(327,228)"/>
<path d="M0 0 C0.08160748 1.89510699 0.13946459 3.79124504 0.1875 5.6875 C0.22230469 6.74324219 0.25710938 7.79898438 0.29296875 8.88671875 C-0.0343103 12.36460416 -1.1464484 14.10033435 -3 17 C-2.67 17.66 -2.34 18.32 -2 19 C-5.375 19.125 -5.375 19.125 -9 19 C-9.66 18.34 -10.32 17.68 -11 17 C-12.32 17 -13.64 17 -15 17 C-15 16.01 -15 15.02 -15 14 C-14.34 14 -13.68 14 -13 14 C-12.98582031 13.40832031 -12.97164063 12.81664062 -12.95703125 12.20703125 C-12.69965299 7.9428995 -12.35961608 5.51827024 -9.875 1.9375 C-6.33324208 -0.44933686 -4.18774791 -0.41056352 0 0 Z " fill="#171717" transform="translate(327,228)"/>
<path d="M0 0 C2 2 2 2 2.5 4.375 C2 7 2 7 -0.75 9.3125 C-4 11 -4 11 -8 11 C-7.67 12.65 -7.34 14.3 -7 16 C-4.69 16.33 -2.38 16.66 0 17 C0 17.66 0 18.32 0 19 C-3.12860495 20.56430248 -5.55602925 20.35627284 -9 20 C-11.7005597 17.85340127 -12.76254389 16.23880404 -13.4140625 12.83984375 C-13.69494771 8.4122058 -13.45073472 6.56934911 -10.625 3 C-6.8084681 0.09216617 -4.79788625 -0.29986789 0 0 Z " fill="#0B0B0B" transform="translate(151,226)"/>
<path d="M0 0 C1.65 0.33 3.3 0.66 5 1 C5.17222453 6.43224859 4.53781823 11.36283798 3.5 16.6875 C2.70322783 20.84004683 2 24.74788482 2 29 C2.99 29.33 3.98 29.66 5 30 C5 30.66 5 31.32 5 32 C-0.75 33.125 -0.75 33.125 -3 32 C-3.44921875 29.53125 -3.44921875 29.53125 -3.6875 26.5 C-3.77386719 25.4996875 -3.86023438 24.499375 -3.94921875 23.46875 C-3.96597656 22.6540625 -3.98273438 21.839375 -4 21 C-3.67 20.67 -3.34 20.34 -3 20 C-2.70420295 18.51730105 -2.4625458 17.02368615 -2.24609375 15.52734375 C-2.11396484 14.62822266 -1.98183594 13.72910156 -1.84570312 12.80273438 C-1.64364258 11.38444336 -1.64364258 11.38444336 -1.4375 9.9375 C-1.29892578 8.98810547 -1.16035156 8.03871094 -1.01757812 7.06054688 C-0.67467814 4.7075435 -0.33566063 2.35404517 0 0 Z " fill="#0E0E0E" transform="translate(120,213)"/>
<path d="M0 0 C0.33 0.99 0.66 1.98 1 3 C0.2265625 4.175625 0.2265625 4.175625 -0.5625 5.375 C-1.036875 6.24125 -1.51125 7.1075 -2 8 C-0.90330087 11.55312983 0.82882398 14.52149528 2.8359375 17.6328125 C3.40046631 18.51291992 3.96499512 19.39302734 4.54663086 20.29980469 C5.14999268 21.23211914 5.75335449 22.16443359 6.375 23.125 C7.63416231 25.09111527 8.89327593 27.05726172 10.15234375 29.0234375 C12.04636199 31.96947547 13.9437578 34.91319236 15.84814453 37.85253906 C17.55084538 40.48105724 19.24454095 43.11520145 20.9375 45.75 C21.72616455 46.95487061 21.72616455 46.95487061 22.53076172 48.18408203 C23.24063232 49.29178955 23.24063232 49.29178955 23.96484375 50.421875 C24.3837085 51.06737305 24.80257324 51.71287109 25.23413086 52.37792969 C25.48686768 52.91321289 25.73960449 53.44849609 26 54 C25.505 54.99 25.505 54.99 25 56 C19.96840522 48.85616578 15.00329672 41.66770617 10.0625 34.4609375 C7.86244182 31.25203685 5.65204444 28.05048149 3.4375 24.8515625 C2.24993416 23.13025376 1.06243303 21.40890036 -0.125 19.6875 C-0.6936377 18.86902588 -1.26227539 18.05055176 -1.84814453 17.20727539 C-2.37520996 16.4414917 -2.90227539 15.67570801 -3.4453125 14.88671875 C-3.91469238 14.20826904 -4.38407227 13.52981934 -4.86767578 12.83081055 C-6 11 -6 11 -7 8 C-4.95925695 4.42869967 -3.44246864 2.2949791 0 0 Z " fill="#191919" transform="translate(268,224)"/>
<path d="M0 0 C4.20606721 3.89534873 7.21710501 8.06781429 10.3125 12.875 C15.85395547 21.33948911 21.58913464 29.65569217 27.3918457 37.94287109 C28.66373225 39.76149475 29.93016052 41.58395106 31.19042969 43.41064453 C32.39182782 45.12975254 33.62176104 46.82928388 34.87988281 48.50732422 C35.44803711 49.28736816 36.01619141 50.06741211 36.6015625 50.87109375 C37.36847412 51.88901001 37.36847412 51.88901001 38.15087891 52.92749023 C39 55 39 55 38.14990234 57.75805664 C37.77043457 58.49789795 37.3909668 59.23773926 37 60 C36.01 60 35.02 60 34 60 C34 59.01 34 58.02 34 57 C32.78747745 52.59939896 31.03482731 49.1804956 28.5078125 45.39453125 C27.8080127 44.3370166 27.10821289 43.27950195 26.38720703 42.18994141 C25.63316034 41.06411266 24.87909088 39.93829915 24.125 38.8125 C22.5803411 36.48504982 21.04032425 34.1545391 19.5 31.82421875 C19.11643341 31.24534912 18.73286682 30.66647949 18.337677 30.07006836 C14.3475718 24.03875363 10.49371696 17.92503186 6.66845703 11.78833008 C4.91401741 8.98319653 3.18955289 6.24812718 1.1796875 3.6171875 C0 2 0 2 0 0 Z " fill="#1D1D1D" transform="translate(196,177)"/>
<path d="M0 0 C0.99 1.485 0.99 1.485 2 3 C2.37125 2.505 2.7425 2.01 3.125 1.5 C5.76701674 -0.61361339 7.71137147 -0.2859677 11 0 C12 1 12 1 12.1328125 3.14453125 C12.13023437 4.02496094 12.12765625 4.90539062 12.125 5.8125 C12.12757813 6.68519531 12.13015625 7.55789062 12.1328125 8.45703125 C12.01114834 10.78654215 11.65514709 12.76938015 11 15 C12.65 15 14.3 15 16 15 C14.8125 17 14.8125 17 13 19 C10.4375 19.375 10.4375 19.375 8 19 C6 17 6 17 5.76953125 14.7578125 C5.79080078 13.45457031 5.79080078 13.45457031 5.8125 12.125 C5.81894531 11.26132813 5.82539063 10.39765625 5.83203125 9.5078125 C5.98606333 7.20807774 6.35838224 5.20716511 7 3 C6.21625 3.515625 5.4325 4.03125 4.625 4.5625 C3.75875 5.036875 2.8925 5.51125 2 6 C1.34 5.67 0.68 5.34 0 5 C0 3.35 0 1.7 0 0 Z " fill="#151515" transform="translate(364,228)"/>
<path d="M0 0 C-1.2065625 0.8971875 -1.2065625 0.8971875 -2.4375 1.8125 C-5.22327984 3.80947276 -5.22327984 3.80947276 -6 7 C-6.0685495 8.89470816 -6.08480372 10.7916834 -6.0625 12.6875 C-6.05347656 13.68136719 -6.04445313 14.67523438 -6.03515625 15.69921875 C-6.02355469 16.45847656 -6.01195313 17.21773437 -6 18 C-6.60328125 17.84660156 -7.2065625 17.69320312 -7.828125 17.53515625 C-10.20641965 16.9491376 -12.59587687 16.46746839 -15 16 C-15 15.34 -15 14.68 -15 14 C-14.34 13.67 -13.68 13.34 -13 13 C-12.49869796 11.00919273 -12.49869796 11.00919273 -12.1875 8.6875 C-11.49052074 5.29445369 -11.10827749 4.12331603 -8.75 1.4375 C-5.57590364 -0.22168673 -3.53307768 -0.32865839 0 0 Z " fill="#0C0C0C" transform="translate(107,227)"/>
<path d="M0 0 C1.32 0.33 2.64 0.66 4 1 C4.46351931 9.84120172 4.46351931 9.84120172 2.75 14.125 C2.1725 14.74375 1.595 15.3625 1 16 C-0.32 16 -1.64 16 -3 16 C-4.44656348 13.10687304 -4.29947586 11.23433934 -4 8 C-2.85576759 5.22186366 -1.48407171 2.61037613 0 0 Z " fill="#E3E3E3" transform="translate(323,229)"/>
<path d="M0 0 C2.0625 0.4375 2.0625 0.4375 4 1 C4 1.99 4 2.98 4 4 C3.34 4 2.68 4 2 4 C2.3403125 5.85625 2.3403125 5.85625 2.6875 7.75 C3.09666898 10.86853111 3.18326458 11.68127899 1.5625 14.5 C1.046875 14.995 0.53125 15.49 0 16 C-1.32 15.67 -2.64 15.34 -4 15 C-4.32321868 9.50528249 -4.5464527 5.53945945 -1 1 C-0.67 0.67 -0.34 0.34 0 0 Z " fill="#EDEDED" transform="translate(104,228)"/>
<path d="M0 0 C3.875 1.875 3.875 1.875 5 3 C5.55562501 6.7703126 5.7377092 10.42918817 4.09375 13.9296875 C2.875 15.5625 2.875 15.5625 0 18 C-3.3125 18.375 -3.3125 18.375 -6 18 C-5.360625 17.443125 -4.72125 16.88625 -4.0625 16.3125 C-1.67059129 13.63066297 -1.3918734 12.52686063 -1 9 C-0.90976562 8.23429688 -0.81953125 7.46859375 -0.7265625 6.6796875 C-0.46846581 4.45447553 -0.22818534 2.22844832 0 0 Z " fill="#060606" transform="translate(327,228)"/>
<path d="M0 0 C6.875 0.875 6.875 0.875 8 2 C8.3125 4.375 8.3125 4.375 8 7 C5.61599352 9.38400648 3.34313786 10.56862737 0 11 C-0.99 10.67 -1.98 10.34 -3 10 C-2.50168276 6.31245243 -1.89932357 4.39509338 1 2 C0.67 1.34 0.34 0.68 0 0 Z " fill="#1E1E1E" transform="translate(185,226)"/>
<path d="M0 0 C2.875 -0.125 2.875 -0.125 6 0 C8 2 8 2 8.5 4.375 C8 7 8 7 5.3125 9.375 C2 11 2 11 -0.875 10.75 C-1.57625 10.5025 -2.2775 10.255 -3 10 C-1.25 4.25 -1.25 4.25 1 2 C0.67 1.34 0.34 0.68 0 0 Z " fill="#202020" transform="translate(145,226)"/>
<path d="M0 0 C1.32 0.33 2.64 0.66 4 1 C4.50423019 6.29441695 3.18923033 8.81413519 0 13 C-1.32 12.67 -2.64 12.34 -4 12 C-4.50423019 6.70558305 -3.18923033 4.18586481 0 0 Z " fill="#F1F1F1" transform="translate(164,229)"/>
<path d="M0 0 C4.49208343 4.12049565 7.68471266 8.71755969 11 13.8125 C11.50789062 14.58142578 12.01578125 15.35035156 12.5390625 16.14257812 C15.76824091 21.04844533 18.91009479 26.00539382 22 31 C21.34 31.66 20.68 32.32 20 33 C19.57178955 32.30962646 19.1435791 31.61925293 18.70239258 30.90795898 C16.74151241 27.74963113 14.77703829 24.59355361 12.8125 21.4375 C12.13896484 20.35146484 11.46542969 19.26542969 10.77148438 18.14648438 C6.56095194 11.38353094 6.56095194 11.38353094 2.01171875 4.84765625 C0 2 0 2 0 0 Z " fill="#444444" transform="translate(196,177)"/>
<path d="M0 0 C4.03578215 -0.46927699 5.58724419 -0.29858931 8.9375 2.125 C11 5 11 5 10.9375 8.1875 C10 11 10 11 8 13 C6.68 13 5.36 13 4 13 C4.0721875 12.38511719 4.144375 11.77023438 4.21875 11.13671875 C4.3115625 10.32847656 4.404375 9.52023438 4.5 8.6875 C4.5928125 7.88699219 4.685625 7.08648437 4.78125 6.26171875 C5.04813463 3.88103445 5.04813463 3.88103445 5 1 C3.35 1 1.7 1 0 1 C0 0.67 0 0.34 0 0 Z " fill="#292929" transform="translate(84,216)"/>
<path d="M0 0 C3.90098338 4.60335021 7.08393435 9.60528574 10.3125 14.6875 C11.15651367 15.9878418 11.15651367 15.9878418 12.01757812 17.31445312 C12.54416016 18.14267578 13.07074219 18.97089844 13.61328125 19.82421875 C14.09579346 20.57791748 14.57830566 21.33161621 15.07543945 22.1081543 C15.38054443 22.73246338 15.68564941 23.35677246 16 24 C15.67 24.66 15.34 25.32 15 26 C12.64881279 22.67894807 10.32179856 19.341654 8 16 C7.25878906 14.94554687 6.51757812 13.89109375 5.75390625 12.8046875 C5.03074219 11.75539063 4.30757813 10.70609375 3.5625 9.625 C2.88316406 8.64789063 2.20382812 7.67078125 1.50390625 6.6640625 C0 4 0 4 0 0 Z " fill="#292929" transform="translate(278,254)"/>
<path d="M0 0 C0.66 0 1.32 0 2 0 C3.74913672 2.42869997 5.39113039 4.85596987 7 7.375 C7.89380661 8.75912338 8.78956032 10.14199184 9.6875 11.5234375 C10.08324219 12.14138184 10.47898438 12.75932617 10.88671875 13.39599609 C12.03868439 15.15716319 12.03868439 15.15716319 14 17 C12.35 17.33 10.7 17.66 9 18 C7.49667622 15.18926431 5.99790265 12.37612794 4.5 9.5625 C4.07074219 8.76005859 3.64148438 7.95761719 3.19921875 7.13085938 C2.79316406 6.36708984 2.38710937 5.60332031 1.96875 4.81640625 C1.59169922 4.10943604 1.21464844 3.40246582 0.82617188 2.67407227 C0 1 0 1 0 0 Z " fill="#3C3C3C" transform="translate(235,198)"/>
<path d="M0 0 C0.6875 1.6875 0.6875 1.6875 1 4 C-0.1875 6.75 -0.1875 6.75 -2 9 C-3.32 9 -4.64 9 -6 9 C-5.69381595 5.32579134 -5.24228216 4.21864487 -2.4375 1.6875 C-1.633125 1.130625 -0.82875 0.57375 0 0 Z " fill="#EDEDED" transform="translate(164,248)"/>
<path d="M0 0 C1.32 0.66 2.64 1.32 4 2 C3.6875 4.375 3.6875 4.375 3 7 C2.01 7.66 1.02 8.32 0 9 C-0.99 8.67 -1.98 8.34 -3 8 C-2.34 7.01 -1.68 6.02 -1 5 C-0.61500109 3.34450469 -0.27206865 1.6777567 0 0 Z " fill="#0E0E0E" transform="translate(392,228)"/>
<path d="M0 0 C1.75 0.0625 1.75 0.0625 4 1 C5.73337404 3.15961356 7.11337713 5.37276782 8 8 C7.60546875 10.23046875 7.60546875 10.23046875 7 12 C5.82767315 10.3790787 4.6622923 8.75313167 3.5 7.125 C2.8503125 6.22007812 2.200625 5.31515625 1.53125 4.3828125 C0 2 0 2 0 0 Z " fill="#222222" transform="translate(270,245)"/>
<path d="M0 0 C0.99 0.33 1.98 0.66 3 1 C2.61402985 3.79828356 2.19863427 4.8205884 0.0625 6.75 C-2 8 -2 8 -4 8 C-3.50168276 4.31245243 -2.89932357 2.39509338 0 0 Z " fill="#D6D6D6" transform="translate(389,229)"/>
<path d="M0 0 C0.99 0 1.98 0 3 0 C2.25 4.75 2.25 4.75 0 7 C-0.99 7 -1.98 7 -3 7 C-2.25 2.25 -2.25 2.25 0 0 Z " fill="#E1E1E1" transform="translate(186,228)"/>
<path d="M0 0 C0.99 0 1.98 0 3 0 C2.25 4.75 2.25 4.75 0 7 C-0.99 7 -1.98 7 -3 7 C-2.25 2.25 -2.25 2.25 0 0 Z " fill="#E6E6E6" transform="translate(146,228)"/>
<path d="M0 0 C0 1.98 0 3.96 0 6 C-1.32 6.33 -2.64 6.66 -4 7 C-3.67 5.02 -3.34 3.04 -3 1 C-3.99 0.67 -4.98 0.34 -6 0 C-3 -1 -3 -1 0 0 Z " fill="#1E1E1E" transform="translate(413,229)"/>
<path d="M0 0 C0.66 0.33 1.32 0.66 2 1 C1.67 1.99 1.34 2.98 1 4 C0.01 4 -0.98 4 -2 4 C-4.16976546 5.82260298 -5.40540668 7.60811001 -7 10 C-7.33 8.68 -7.66 7.36 -8 6 C-2.25 1.125 -2.25 1.125 0 0 Z " fill="#202020" transform="translate(164,246)"/>
<path d="M0 0 C2.96659857 3.55991828 5.381348 7.65222543 7 12 C6.67 12.66 6.34 13.32 6 14 C4.98576166 12.61447798 3.98912998 11.21605712 3 9.8125 C2.443125 9.03519531 1.88625 8.25789063 1.3125 7.45703125 C-0.151369 4.71663363 -0.26080213 3.05899163 0 0 Z " fill="#383838" transform="translate(253,253)"/>
<path d="M0 0 C2.63978826 3.18595135 5.10498388 6.30970546 7 10 C6.67 10.66 6.34 11.32 6 12 C3.69 8.7 1.38 5.4 -1 2 C-0.67 1.34 -0.34 0.68 0 0 Z " fill="#444444" transform="translate(287,268)"/>
<path d="M0 0 C0.33 0.99 0.66 1.98 1 3 C0.34 3.66 -0.32 4.32 -1 5 C-1.66 5 -2.32 5 -3 5 C-3.99 5.66 -4.98 6.32 -6 7 C-4.52307692 2.32307692 -4.52307692 2.32307692 -1.875 0.6875 C-1.25625 0.460625 -0.6375 0.23375 0 0 Z " fill="#202020" transform="translate(226,243)"/>
</svg>
