<svg id="Layer_1" data-name="Layer 1" xmlns="http://www.w3.org/2000/svg" viewBox="0 0 122.88 121">
  <defs>
    <style>
      .cls-1 { fill: #ef4136; }
      .cls-1, .cls-3, .cls-4, .cls-6 { fill-rule: evenodd; }
      .cls-2 { fill: gray; }
      .cls-3 { fill: #fff; }
      .cls-4 { fill: #c72b20; }
      .cls-5, .cls-6 { fill: #1a1a1a; }
    </style>
  </defs>
  <title>calendar-color</title>
  <path class="cls-1" d="M11.52,6.67h99.84a11.57,11.57,0,0,1,11.52,11.52V44.94H0V18.19A11.56,11.56,0,0,1,11.52,6.67Zm24.79,9.75A9.31,9.31,0,1,1,27,25.73a9.31,9.31,0,0,1,9.31-9.31Zm49.79,0a9.31,9.31,0,1,1-9.31,9.31,9.31,9.31,0,0,1,9.31-9.31Z"/>
  <path class="cls-2" d="M111.36,121H11.52A11.57,11.57,0,0,1,0,109.48V40H122.88v69.46A11.56,11.56,0,0,1,111.36,121Z"/>
  <path class="cls-3" d="M12.75,117.31h97.38a9.1,9.1,0,0,0,9.06-9.06V40H3.69v68.23a9.09,9.09,0,0,0,9.06,9.06Z"/>
  <path class="cls-4" d="M86.1,14.63a11.11,11.11,0,1,1-7.85,3.26l.11-.1a11.06,11.06,0,0,1,7.74-3.16Zm0,1.79a9.31,9.31,0,1,1-9.31,9.31,9.31,9.31,0,0,1,9.31-9.31Z"/>
  <path class="cls-4" d="M36.31,14.63a11.11,11.11,0,1,1-7.85,3.26l.11-.1a11.08,11.08,0,0,1,7.74-3.16Zm0,1.79A9.31,9.31,0,1,1,27,25.73a9.31,9.31,0,0,1,9.31-9.31Z"/>
  <path class="cls-5" d="M80.54,4.56C80.54,2,83,0,86.1,0s5.56,2,5.56,4.56V25.77c0,2.51-2.48,4.56-5.56,4.56s-5.56-2-5.56-4.56V4.56Z"/>
  <path class="cls-5" d="M30.75,4.56C30.75,2,33.24,0,36.31,0s5.56,2,5.56,4.56V25.77c0,2.51-2.48,4.56-5.56,4.56s-5.56-2-5.56-4.56V4.56Z"/>
  <path class="cls-6" d="M22,85.62H36a1.79,1.79,0,0,1,1.79,1.79v11.7A1.8,1.8,0,0,1,36,100.9H22a1.8,1.8,0,0,1-1.8-1.79V87.41A1.8,1.8,0,0,1,22,85.62Z"/>
  <path class="cls-6" d="M54.58,85.62H68.64a1.79,1.79,0,0,1,1.79,1.79v11.7a1.8,1.8,0,0,1-1.79,1.79H54.58a1.8,1.8,0,0,1-1.79-1.79V87.41a1.8,1.8,0,0,1,1.79-1.79Z"/>
  <path class="cls-6" d="M86.87,85.62h14.06a1.8,1.8,0,0,1,1.79,1.79v11.7a1.8,1.8,0,0,1-1.79,1.79H86.87a1.8,1.8,0,0,1-1.79-1.79V87.41a1.79,1.79,0,0,1,1.79-1.79Z"/>
  <path class="cls-6" d="M22,56.42H36a1.8,1.8,0,0,1,1.79,1.8V69.91A1.8,1.8,0,0,1,36,71.7H22a1.8,1.8,0,0,1-1.8-1.79V58.22a1.81,1.81,0,0,1,1.8-1.8Z"/>
  <path class="cls-6" d="M54.58,56.42H68.64a1.8,1.8,0,0,1,1.79,1.8V69.91a1.8,1.8,0,0,1-1.79,1.79H54.58a1.79,1.79,0,0,1-1.79-1.79V58.22a1.8,1.8,0,0,1,1.79-1.8Z"/>
  <path class="cls-6" d="M86.87,56.42h14.06a1.8,1.8,0,0,1,1.79,1.8V69.91a1.8,1.8,0,0,1-1.79,1.79H86.87a1.79,1.79,0,0,1-1.79-1.79V58.22a1.8,1.8,0,0,1,1.79-1.8Z"/>

  <path fill="#333" fill-rule="nonzero" d="M344.323 189.398c-185.654-509.961 164.288 451.303 0 0zM.006 274.208c-.296-26.257 9.654-49.868 32.868-59.155.862-1.3 1.707-2.308 3.211-3.568 2.682-2.25 5.117-2.917 8.271-4.119 111.299-40.944 154.013-104.741 178.306-141.025 7.092-10.592 12.749-19.04 18.586-24.867 3.238-3.233 5.784-5.311 9.611-6.748 3.955-1.486 7.636-1.621 12.763-.797 11.258 1.807 22.804 9.317 34.09 21.008 24.993 25.89 51.345 74.957 69.931 126.007 18.674 51.3 29.726 105.327 24.013 140.899-2.355 14.671-7.549 26.712-16.147 35.01l-.013-.013c-.499.479-1.046.923-1.638 1.325-5.906 4.013-13.849 7.077-26.051 6.72-13.432-.383-23.951-3.717-33.162-9.064-10.608-6.122-18.764-14.812-26.363-25.223-7.694-10.504-14.69-23.635-22.804-37.308-4.301-7.268-9.444-15.016-14.739-22.447l-.018.017c-13.715-18.12-30.446-34.085-45.035-44.074-14.849-10.2-29.396-13.458-44.755-8.252-15.044 5.085-28.227 17.836-37.1 34.528-9.212 17.288-13.682 38.108-14.082 59.352h-.013v.1l.006.01z"/>
</svg>
