 <svg  version="1.0" xmlns="http://www.w3.org/2000/svg"  width="450.000000pt" height="300.000000pt" viewBox="0 0 450.000000 300.000000"  preserveAspectRatio="xMidYMid meet">  <g transform="translate(0.000000,300.000000) scale(0.100000,-0.100000)" fill="#6c63ff" stroke="none"> <path d="M3099 2526 c7 -8 82 -54 166 -103 l155 -88 0 -98 c0 -54 -3 -97 -8 -95 -4 2 -78 44 -165 93 l-157 90 0 98 c0 60 -4 97 -10 97 -7 0 -10 -37 -8 -102 3 -91 5 -104 23 -113 86 -44 173 -100 168 -108 -3 -6 -6 -24 -5 -41 l1 -31 -16 30 c-20 37 -32 49 -68 67 -37 19 -65 10 -85 -26 -12 -23 -12 -33 2 -75 17 -54 13 -57 -40 -23 -31 20 -39 9 -45 -67 -5 -67 -1 -91 15 -91 5 0 35 -17 67 -38 123 -82 148 -75 134 36 -8 63 -7 71 10 81 15 10 21 9 31 -4 6 -9 34 -29 61 -43 48 -26 50 -29 51 -70 1 -24 5 -47 10 -52 16 -15 177 -100 181 -96 3 2 -31 25 -74 50 -43 24 -84 48 -91 53 -8 5 -12 21 -10 40 l3 32 92 -52 c92 -52 93 -52 93 -91 0 -22 3 -37 6 -33 11 10 4 270 -8 284 -6 7 -43 32 -83 54 l-72 41 6 37 c4 20 4 67 1 106 l-5 70 -110 68 c-60 37 -126 75 -145 84 -19 9 -37 20 -40 23 -3 4 -14 10 -24 13 -16 6 -17 5 -7 -7z m102 -346 c57 -60 64 -124 16 -154 -36 -23 -117 70 -117 133 0 72 44 81 101 21z m232 -70 l147 -84 0 -92 0 -92 -152 88 -153 88 -3 92 c-1 51 1 90 5 88 5 -1 75 -41 156 -88z m-285 -84 l62 -37 0 -69 0 -69 -95 56 -95 55 0 70 0 70 33 -20 c17 -10 60 -36 95 -56z"/> <path d="M3142 2130 c0 -19 2 -27 5 -17 2 9 2 25 0 35 -3 9 -5 1 -5 -18z"/> <path d="M3170 2153 c0 -6 8 -17 18 -24 16 -13 16 -13 2 6 -8 11 -16 22 -17 24 -2 2 -3 0 -3 -6z"/> <path d="M3168 2093 c6 -2 18 -2 25 0 6 3 1 5 -13 5 -14 0 -19 -2 -12 -5z"/> <path d="M3050 2010 c-14 -11 -17 -18 -8 -14 12 4 21 -3 32 -25 l16 -30 36 21 c34 20 35 20 49 2 8 -11 15 -23 15 -28 0 -5 3 -6 6 -3 4 4 -1 18 -10 33 -13 19 -23 24 -40 20 -16 -4 -24 1 -31 17 -13 29 -34 31 -65 7z m58 -13 c2 -10 -3 -17 -12 -17 -9 0 -16 2 -16 4 0 2 -3 12 -6 21 -5 13 -2 16 12 13 10 -2 20 -11 22 -21z"/> <path d="M2290 2423 c-56 -33 -96 -56 -194 -111 -59 -34 -76 -48 -75 -65 0 -21 1 -21 9 -2 4 11 69 55 146 99 77 44 148 86 159 93 35 23 1 13 -45 -14z"/> <path d="M2360 2385 c0 -32 3 -56 6 -52 8 7 7 97 -1 105 -3 3 -5 -21 -5 -53z"/> <path d="M3133 2425 c-30 -21 -38 -63 -17 -86 9 -11 21 -19 26 -19 5 0 37 -17 71 -38 93 -58 180 -105 173 -93 -4 5 -67 45 -141 88 -74 43 -135 83 -135 89 0 6 9 23 21 38 26 33 40 24 69 -40 19 -43 33 -54 45 -34 12 19 23 10 35 -25 13 -39 13 -39 39 -23 24 15 45 -1 67 -46 l14 -31 -6 30 c-8 43 -32 65 -69 65 -27 0 -34 5 -39 26 -6 23 -11 26 -35 21 -26 -5 -30 -2 -43 33 -20 48 -47 65 -75 45z"/> <path d="M3984 2415 c-16 -16 -24 -34 -22 -48 4 -29 50 -34 124 -12 56 16 56 16 38 37 -20 22 -73 48 -99 48 -9 0 -27 -11 -41 -25z m104 -11 c12 -8 22 -20 22 -26 0 -7 -6 -4 -13 5 -6 10 -26 21 -42 26 -21 7 -24 10 -10 10 11 1 31 -6 43 -15z m-25 -16 c15 2 27 -1 27 -7 0 -6 -20 -11 -45 -11 -31 0 -45 4 -45 13 0 21 13 29 25 15 5 -7 22 -12 38 -10z m-58 -30 c6 -4 0 -8 -12 -8 -16 0 -21 4 -16 15 3 9 8 12 12 8 3 -4 11 -11 16 -15z"/> <path d="M2296 2385 c-9 -9 -16 -21 -16 -26 0 -6 -5 -7 -12 -3 -6 4 -8 3 -5 -3 4 -6 -4 -18 -18 -27 -14 -9 -25 -24 -25 -32 0 -22 -30 -84 -41 -84 -5 0 -9 7 -9 16 0 11 -8 14 -26 12 -21 -2 -30 -12 -43 -45 -9 -22 -24 -50 -34 -61 -23 -25 -19 -57 8 -57 14 0 27 15 42 48 13 26 28 47 33 47 6 0 8 -4 5 -10 -3 -5 6 -12 21 -16 28 -7 54 14 54 44 0 21 71 132 92 143 21 12 24 42 4 58 -11 9 -18 8 -30 -4z m34 -15 c0 -6 -12 -20 -26 -33 -29 -25 -94 -135 -94 -160 0 -26 -21 -31 -36 -8 -22 30 -37 26 -58 -16 -10 -21 -21 -44 -25 -52 -9 -18 -31 -26 -31 -12 0 6 14 30 30 53 17 22 30 49 30 59 0 28 20 33 36 10 8 -12 21 -21 28 -21 12 0 45 59 52 93 1 10 17 31 34 47 16 15 30 33 30 39 0 6 7 11 15 11 8 0 15 -5 15 -10z"/> <path d="M2765 2309 c-66 -39 -135 -77 -154 -85 -18 -8 -42 -24 -54 -35 -11 -10 -24 -19 -28 -19 -4 0 -37 -18 -74 -41 -37 -22 -88 -49 -112 -60 -24 -10 -51 -26 -60 -34 -23 -24 -89 -55 -98 -47 -5 4 -5 2 -2 -4 4 -7 -6 -17 -23 -24 -46 -19 -52 -33 -55 -142 -2 -57 -4 -110 -4 -119 -1 -9 -40 -38 -91 -69 -50 -29 -93 -57 -97 -63 -4 -6 11 -1 33 12 21 13 68 39 102 59 l64 35 -7 -145 -7 -144 29 -32 c22 -25 462 -292 481 -292 18 0 602 347 602 358 0 9 -6 12 -15 8 -8 -3 -144 -80 -302 -171 l-286 -165 -228 132 c-126 73 -229 135 -229 138 1 3 174 105 386 227 l385 221 -1 268 c0 147 -2 270 -5 272 -5 6 -758 -428 -767 -442 -4 -6 -8 -132 -8 -279 0 -176 -3 -266 -10 -262 -12 7 -14 534 -2 551 8 12 708 419 755 439 15 6 24 14 20 18 -10 11 -10 11 -138 -64z m128 -491 c-10 -9 -117 -74 -238 -144 -121 -70 -273 -157 -339 -195 -65 -38 -127 -71 -138 -74 -18 -6 -18 3 -16 246 l3 251 130 76 c72 41 200 116 285 165 85 50 193 112 240 139 l85 48 3 -247 c2 -225 1 -249 -15 -265z"/> <path d="M2530 2093 l-355 -206 0 -233 c0 -129 3 -233 6 -231 3 1 164 94 357 205 l352 204 0 234 c0 129 -1 234 -2 233 -2 0 -163 -93 -358 -206z m339 72 c0 -58 -5 -105 -10 -105 -5 0 -9 9 -9 21 0 31 -53 79 -87 79 -29 0 -88 -27 -123 -57 -11 -10 -34 -44 -50 -75 -50 -95 -35 -198 33 -232 l32 -15 -32 -13 c-18 -7 -33 -15 -33 -19 0 -7 -94 -59 -107 -59 -4 0 7 13 25 29 36 33 43 74 15 90 -13 7 -30 1 -68 -24 -57 -36 -102 -54 -91 -36 4 6 26 19 49 29 70 32 127 79 127 106 0 35 -23 50 -52 34 -13 -7 -25 -15 -28 -18 -16 -16 -90 -50 -90 -41 0 6 4 11 9 11 6 0 30 14 54 30 25 17 49 30 54 30 5 0 19 9 31 20 28 27 30 80 3 80 -17 0 -105 -45 -191 -98 -19 -12 -44 -26 -55 -31 -33 -15 -57 -48 -51 -69 8 -25 34 -36 51 -22 6 5 15 7 18 3 12 -12 7 -23 -10 -23 -18 0 -63 -38 -63 -53 0 -13 30 -47 41 -47 4 0 23 14 41 31 18 18 25 29 16 26 -42 -14 -12 11 53 46 39 21 68 41 65 44 -3 3 -33 -11 -67 -31 -34 -20 -64 -35 -66 -32 -5 5 8 13 130 85 95 55 106 59 87 36 -10 -12 -10 -15 1 -15 20 -1 -11 -22 -108 -77 -45 -25 -80 -50 -77 -55 6 -9 -46 -62 -70 -71 -8 -3 -22 -18 -32 -32 -16 -24 -16 -27 1 -45 19 -21 40 -17 68 12 10 10 22 18 28 18 5 0 -7 -17 -28 -37 -20 -21 -44 -37 -51 -35 -8 2 -11 -1 -7 -7 3 -6 1 -11 -4 -11 -6 0 -11 -8 -11 -17 0 -15 2 -14 14 3 8 10 18 16 22 12 4 -5 0 -16 -9 -26 -10 -10 -17 -23 -17 -29 0 -10 -22 -23 -39 -23 -5 0 -9 94 -10 208 l-2 208 248 144 c136 78 289 167 338 197 50 29 91 53 93 53 1 0 2 -47 1 -105z m-53 -50 c72 -110 -98 -349 -200 -282 -74 49 -12 234 99 295 37 21 83 14 101 -13z m-296 -110 c-10 -12 -10 -15 1 -15 20 -1 -11 -22 -108 -77 -51 -29 -80 -50 -76 -59 2 -7 -5 -17 -16 -24 -26 -13 -28 -3 -3 17 16 14 16 14 0 9 -40 -12 -13 11 53 47 39 21 68 41 65 44 -3 3 -33 -11 -67 -31 -34 -20 -64 -35 -66 -32 -5 5 -7 4 122 81 95 56 116 65 95 40z m349 -72 c-2 -84 -10 -113 -31 -113 -6 0 -5 7 2 15 17 20 -5 48 -32 40 -17 -6 -16 -2 6 38 13 25 28 59 34 76 6 17 13 31 16 31 3 0 5 -39 5 -87z m-582 -69 c2 -5 -3 -19 -11 -29 -21 -28 -43 -7 -26 25 11 21 31 23 37 4z m537 -14 c-17 -17 -229 -138 -233 -134 -7 6 -3 9 114 78 104 61 142 79 119 56z m-303 -64 c-9 -11 -9 -15 1 -18 11 -4 -110 -82 -192 -123 -29 -15 -33 -15 -22 -3 10 13 10 17 0 20 -7 3 37 34 97 70 112 68 136 79 116 54z m-234 -32 c2 -5 -3 -19 -11 -29 -21 -28 -43 -7 -26 25 11 21 31 23 37 4z m278 -54 c-3 -5 -11 -10 -16 -10 -6 0 -7 5 -4 10 3 6 11 10 16 10 6 0 7 -4 4 -10z m-101 -19 c-25 -22 -104 -60 -104 -50 0 6 9 13 20 16 11 3 20 10 20 16 0 6 3 7 6 4 4 -3 18 3 32 13 23 19 47 20 26 1z m65 -5 c-21 -18 -234 -134 -238 -129 -4 3 -1 7 4 10 6 2 59 32 120 68 60 35 111 62 114 60 2 -3 2 -7 0 -9z m61 4 c-20 -13 -33 -13 -25 0 3 6 14 10 23 10 15 0 15 -2 2 -10z m-303 -36 c2 -5 -3 -19 -11 -29 -21 -28 -43 -7 -26 25 11 21 31 23 37 4z m262 13 c-2 -1 -13 -9 -24 -17 -19 -14 -19 -14 -6 3 7 9 18 17 24 17 6 0 8 -1 6 -3z m-119 -71 c0 -2 -7 -7 -16 -10 -8 -3 -12 -2 -9 4 6 10 25 14 25 6z m-140 -75 c0 -5 -7 -12 -16 -15 -24 -9 -28 -7 -14 9 14 17 30 20 30 6z"/> <path d="M2467 1864 c-16 -9 -27 -18 -24 -21 6 -5 67 24 67 32 0 8 -14 5 -43 -11z"/> <path d="M2680 2052 c-49 -48 -69 -115 -47 -153 10 -18 11 -32 5 -43 -6 -10 -5 -16 2 -16 5 0 10 7 10 15 0 8 8 15 18 15 55 0 124 88 124 157 0 73 -53 84 -112 25z m88 -20 c4 -40 -30 -103 -68 -125 -24 -15 -29 -15 -40 -2 -10 12 -10 18 1 32 10 11 10 14 2 9 -35 -20 10 74 50 106 32 26 51 18 55 -20z"/> <path d="M2467 1974 c-16 -9 -27 -18 -24 -21 6 -5 67 24 67 32 0 8 -14 5 -43 -11z"/> <path d="M2407 1718 c-48 -28 -85 -53 -83 -55 5 -5 186 96 186 103 0 10 -21 0 -103 -48z"/> <path d="M4126 2353 c-40 -21 -151 -30 -171 -13 -17 14 -20 3 -5 -20 21 -33 210 -1 210 36 0 17 2 17 -34 -3z"/> <path d="M2362 2300 c0 -14 2 -19 5 -12 2 6 2 18 0 25 -3 6 -5 1 -5 -13z"/> <path d="M3921 2284 c0 -11 3 -14 6 -6 3 7 2 16 -1 19 -3 4 -6 -2 -5 -13z"/> <path d="M2361 2244 c0 -11 3 -14 6 -6 3 7 2 16 -1 19 -3 4 -6 -2 -5 -13z"/> <path d="M3932 2240 c0 -14 2 -19 5 -12 2 6 2 18 0 25 -3 6 -5 1 -5 -13z"/> <path d="M3465 2217 c-15 -46 -7 -83 20 -95 42 -19 52 -15 57 24 3 27 -1 41 -15 54 -24 23 -57 32 -62 17z m65 -64 c0 -37 -6 -40 -38 -17 -16 11 -22 25 -22 50 l0 35 30 -18 c24 -14 30 -24 30 -50z"/> <path d="M4261 2214 c0 -11 3 -14 6 -6 3 7 2 16 -1 19 -3 4 -6 -2 -5 -13z"/> <path d="M4013 2201 c-18 -10 -40 -24 -48 -31 -12 -10 -15 -9 -16 6 -1 14 -3 12 -8 -6 -4 -14 -7 -26 -6 -28 2 -2 26 11 54 28 29 16 56 30 60 30 5 0 43 -20 85 -44 l77 -44 -81 -46 -81 -47 -57 34 c-31 19 -67 40 -79 46 l-23 12 0 -402 c0 -221 2 -400 4 -398 5 5 15 331 16 564 1 105 4 184 7 178 2 -7 13 -13 22 -13 10 0 26 -9 36 -20 10 -11 22 -20 27 -20 30 0 38 -31 38 -145 l0 -116 -35 -20 c-33 -20 -35 -24 -29 -58 3 -20 11 -41 18 -47 9 -10 411 -244 484 -283 17 -9 22 -9 22 1 0 15 -58 55 -94 64 -13 3 -32 14 -42 25 -9 10 -23 19 -31 19 -7 0 -13 5 -13 10 0 6 -9 10 -20 10 -11 0 -20 4 -20 8 0 5 -25 22 -55 38 -31 16 -51 30 -46 32 6 2 65 -29 133 -69 185 -108 190 -110 186 -98 -2 6 -116 76 -253 155 -137 79 -252 147 -257 152 -4 4 20 24 55 44 34 20 150 86 257 148 214 124 205 118 198 125 -2 3 -42 -17 -88 -45 -46 -27 -87 -50 -91 -50 -4 0 -10 15 -12 33 -4 32 -4 32 -5 -5 -2 -32 -8 -41 -46 -68 -25 -16 -47 -30 -50 -30 -3 0 -39 -20 -81 -45 l-75 -44 0 127 0 127 -76 44 c-41 24 -73 45 -71 47 2 2 36 -14 75 -37 l71 -41 57 32 c31 17 58 29 61 26 3 -2 -14 -14 -36 -26 -23 -11 -39 -25 -36 -31 6 -9 62 24 76 44 4 6 14 7 23 4 10 -4 16 -1 16 9 0 11 -6 13 -22 8 -19 -6 -18 -3 6 18 l29 25 -32 22 c-17 12 -29 26 -26 31 3 5 1 11 -5 15 -5 3 -10 -2 -10 -11 0 -16 -1 -16 -18 -1 -10 10 -23 17 -29 17 -6 0 -16 7 -23 15 -16 19 -27 18 -67 -4z m145 -651 c2 -6 2 -10 -1 -10 -11 0 -66 32 -77 45 -7 8 -19 15 -26 15 -8 0 -14 3 -14 8 0 4 -10 12 -22 17 -12 6 -23 15 -25 22 -5 14 160 -83 165 -97z"/> <path d="M2235 2133 c-71 -41 -150 -86 -174 -99 -24 -13 -38 -24 -30 -24 14 1 52 21 228 124 83 48 126 78 109 76 -2 -1 -61 -35 -133 -77z"/> <path d="M4003 2153 c-18 -9 -33 -21 -33 -25 0 -5 18 1 41 14 l41 23 39 -23 c47 -27 53 -20 7 8 -39 24 -52 24 -95 3z"/> <path d="M4272 2135 c0 -16 2 -22 5 -12 2 9 2 23 0 30 -3 6 -5 -1 -5 -18z"/> <path d="M2017 2113 c-8 -45 -6 -72 4 -78 5 -4 9 17 9 49 0 60 -6 72 -13 29z"/> <path d="M3952 2114 c4 -21 73 -64 103 -64 25 0 95 46 95 63 0 8 -2 9 -8 1 -4 -6 -26 -21 -50 -33 -39 -20 -44 -20 -73 -6 -16 9 -39 25 -50 36 -19 19 -20 19 -17 3z"/> <path d="M4282 2075 c0 -16 2 -22 5 -12 2 9 2 23 0 30 -3 6 -5 -1 -5 -18z"/> <path d="M1356 2055 c-10 -8 -24 -16 -30 -18 -6 -2 -8 -8 -4 -12 4 -4 20 1 37 11 29 17 31 17 66 -2 20 -10 38 -22 40 -25 2 -3 -14 -16 -36 -28 l-40 -23 -35 21 c-19 12 -37 21 -40 21 -2 0 -4 -65 -4 -145 0 -143 0 -145 -20 -135 -14 7 -20 7 -20 0 0 -5 -7 -10 -15 -10 -26 0 -30 -33 -25 -200 l6 -165 3 140 c2 77 3 143 2 148 -2 12 17 8 21 -5 3 -7 5 -67 7 -133 1 -65 4 -121 6 -124 3 -2 5 53 5 123 0 126 0 127 28 153 l27 25 -26 -15 c-24 -14 -28 -14 -53 2 l-27 18 26 17 c24 16 27 16 55 -1 l29 -17 4 -125 3 -126 2 130 c1 101 -2 134 -13 150 -12 15 -15 48 -14 142 1 68 4 123 8 123 4 0 15 -6 24 -12 14 -11 17 -40 22 -192 3 -99 7 -182 10 -184 3 -3 5 79 5 181 0 120 4 187 10 187 17 0 80 44 80 56 0 14 -71 64 -91 64 -7 0 -23 -7 -33 -15z"/> <path d="M773 2039 c-97 -87 -123 -119 -123 -154 0 -64 20 -123 43 -129 75 -20 222 2 325 49 43 20 52 28 52 50 l0 25 -50 -25 c-27 -14 -75 -32 -107 -40 -61 -16 -209 -20 -231 -6 -8 4 -16 26 -19 47 -6 49 21 93 90 145 l48 36 89 -32 c71 -24 100 -40 135 -75 25 -24 45 -40 45 -35 0 5 -23 30 -50 56 -40 38 -67 53 -130 73 -87 28 -99 30 -117 15z m247 -213 c0 -2 -7 -7 -16 -10 -8 -3 -12 -2 -9 4 6 10 25 14 25 6z m-110 -40 c0 -2 -9 -6 -20 -9 -11 -3 -20 -1 -20 4 0 5 9 9 20 9 11 0 20 -2 20 -4z m-183 -12 c-3 -3 -12 -4 -19 -1 -8 3 -5 6 6 6 11 1 17 -2 13 -5z m126 -1 c-7 -2 -19 -2 -25 0 -7 3 -2 5 12 5 14 0 19 -2 13 -5z"/> <path d="M4203 1995 c0 -27 2 -38 4 -22 2 15 2 37 0 50 -2 12 -4 0 -4 -28z"/> <path d="M4292 2005 c0 -16 2 -22 5 -12 2 9 2 23 0 30 -3 6 -5 -1 -5 -18z"/> <path d="M744 1968 c-47 -46 -66 -90 -53 -125 17 -45 177 -37 292 14 l58 26 -41 42 c-30 30 -58 47 -108 63 -38 12 -76 22 -86 22 -9 0 -37 -19 -62 -42z m156 0 c61 -22 93 -45 83 -61 -3 -5 -1 -7 5 -3 6 3 13 2 17 -3 16 -27 -115 -70 -216 -72 -37 -1 -71 1 -76 4 -5 3 -10 20 -11 37 -2 27 6 41 47 82 55 54 48 54 151 16z"/> <path d="M754 1938 c-16 -18 -22 -27 -13 -20 15 11 17 9 18 -10 1 -59 -2 -57 83 -54 91 4 122 20 93 50 -9 9 -32 16 -51 16 -24 0 -43 8 -60 25 -14 14 -28 25 -33 25 -4 0 -20 -14 -37 -32z m56 -18 c0 -18 7 -20 55 -20 30 0 55 -4 55 -10 0 -6 -31 -10 -73 -10 l-73 0 2 28 c3 34 2 32 19 32 8 0 15 -9 15 -20z"/> <path d="M4065 2000 c-3 -5 1 -10 9 -10 9 0 16 5 16 10 0 6 -4 10 -9 10 -6 0 -13 -4 -16 -10z"/> <path d="M1995 1960 c-22 -16 -44 -29 -49 -30 -5 0 -28 -12 -52 -27 -44 -28 -44 -28 -42 -83 l1 -55 6 55 c4 38 10 55 20 55 8 0 16 -6 19 -14 3 -10 -1 -12 -14 -7 -14 4 -13 1 5 -13 21 -16 28 -17 55 -6 33 14 110 74 103 81 -7 8 -37 -8 -32 -16 5 -7 -54 -50 -68 -50 -3 0 -4 9 -2 19 3 14 -1 18 -11 14 -10 -4 -12 0 -8 11 3 9 11 13 17 9 6 -4 7 -1 2 7 -5 8 -3 11 6 8 8 -3 13 -14 13 -26 -1 -13 3 -19 12 -15 8 3 11 9 8 14 -3 5 3 6 13 2 10 -3 15 -3 11 2 -4 4 -2 15 5 23 10 13 9 14 -12 3 -18 -10 -26 -10 -35 -1 -8 9 -6 11 9 8 13 -2 19 2 17 11 -2 9 3 11 15 7 9 -4 14 -4 10 0 -8 8 22 33 40 34 6 0 14 -15 16 -32 l5 -33 -2 35 c-1 46 -28 49 -81 10z m-80 -69 c-3 -6 3 -14 12 -20 14 -8 15 -10 3 -11 -12 0 -12 -2 -2 -9 11 -7 11 -9 -1 -14 -11 -4 -15 0 -12 13 2 10 -4 21 -13 25 -14 5 -14 7 -2 15 19 12 23 12 15 1z"/> <path d="M2931 1936 c4 -4 619 -362 815 -475 l82 -47 -538 -312 c-295 -172 -540 -312 -544 -312 -6 0 -416 235 -935 537 -79 45 -145 83 -148 83 -2 0 -3 -23 -1 -51 l3 -51 345 -200 c190 -110 431 -250 535 -310 105 -61 195 -111 200 -111 6 0 159 86 340 190 322 187 395 222 395 190 0 -9 -6 -18 -12 -20 -8 -4 -7 -6 3 -6 9 -1 19 -9 21 -18 8 -32 9 -138 1 -127 -5 7 -21 9 -43 5 l-35 -6 -3 -86 c-2 -68 1 -89 13 -99 17 -14 34 -5 19 10 -9 9 -8 36 7 145 1 11 5 -16 8 -60 5 -70 9 -80 26 -83 16 -3 18 -1 8 9 -14 14 -18 117 -5 134 4 6 14 11 22 13 31 7 120 64 120 77 0 7 29 30 65 51 35 21 62 40 60 42 -8 8 -117 -62 -132 -85 -9 -13 -23 -23 -33 -23 -9 0 -28 -9 -41 -21 l-24 -21 -6 64 c-3 34 -10 74 -16 88 -10 24 -6 27 101 88 61 35 118 69 126 77 8 7 34 21 57 31 23 10 44 26 46 35 5 18 6 19 -237 -124 -72 -42 -122 -65 -124 -59 -5 17 -27 15 -42 -3 -7 -8 -18 -15 -26 -15 -7 0 -36 -13 -64 -30 -27 -16 -50 -26 -50 -22 0 4 -6 0 -13 -8 -7 -8 -25 -22 -42 -30 -16 -8 -32 -18 -35 -22 -3 -3 -34 -22 -70 -41 -36 -19 -110 -61 -165 -94 -182 -108 -211 -123 -224 -110 -6 6 -11 8 -11 4 0 -9 -148 69 -160 84 -3 4 -61 37 -130 74 -69 37 -132 73 -140 80 -17 15 -120 73 -197 111 -29 15 -53 30 -53 35 0 5 -7 9 -15 9 -8 0 -15 3 -15 8 0 4 -15 13 -32 21 -18 8 -48 25 -67 37 -19 13 -38 21 -43 18 -4 -3 -8 -2 -8 3 0 4 -23 19 -51 33 -27 13 -59 32 -69 42 -11 10 -23 18 -28 18 -20 0 -50 40 -45 60 3 11 7 20 8 20 3 0 117 -67 130 -77 6 -4 35 -21 65 -37 30 -16 102 -57 160 -91 58 -35 122 -71 143 -81 20 -10 37 -21 37 -26 0 -4 4 -8 10 -8 5 0 44 -20 86 -45 41 -25 79 -45 84 -45 5 0 10 -3 12 -7 2 -5 19 -16 38 -27 77 -41 127 -69 160 -90 19 -13 54 -35 77 -49 24 -15 42 -32 40 -38 -1 -6 4 -14 12 -17 8 -3 11 0 7 6 -9 14 5 25 94 75 41 24 131 76 200 116 69 40 172 100 230 133 58 33 134 77 170 99 36 22 74 44 85 49 11 6 27 14 35 20 54 35 240 140 248 140 5 0 13 8 17 18 12 26 14 43 6 38 -15 -10 -71 34 -72 56 -1 17 -2 19 -6 6 -2 -10 -7 -18 -9 -18 -3 0 -36 19 -75 43 -73 44 -103 61 -204 117 -33 18 -72 41 -87 52 -14 10 -31 18 -37 18 -6 0 -11 4 -11 8 0 5 -12 14 -27 21 -16 7 -101 55 -189 107 -89 52 -168 94 -175 94 -7 0 -10 -2 -8 -4z"/> <path d="M4202 1910 c0 -19 2 -27 5 -17 2 9 2 25 0 35 -3 9 -5 1 -5 -18z"/> <path d="M2075 1900 c3 -5 8 -10 11 -10 2 0 4 5 4 10 0 6 -5 10 -11 10 -5 0 -7 -4 -4 -10z"/> <path d="M1968 1823 c-54 -31 -96 -58 -94 -61 5 -5 184 96 191 108 9 15 7 14 -97 -47z"/> <path d="M4201 1854 c0 -11 3 -14 6 -6 3 7 2 16 -1 19 -3 4 -6 -2 -5 -13z"/> <path d="M611 1844 c0 -11 3 -14 6 -6 3 7 2 16 -1 19 -3 4 -6 -2 -5 -13z"/> <path d="M4327 1760 c3 -41 10 -81 16 -88 11 -14 139 -92 151 -92 18 0 -10 23 -75 61 -80 46 -82 39 24 98 32 18 56 36 53 39 -3 2 -38 -14 -77 -37 -40 -23 -73 -40 -74 -39 -2 2 -8 32 -13 68 l-11 65 6 -75z"/> <path d="M2940 1812 c0 -7 282 -172 294 -172 3 0 6 5 6 10 0 6 -5 10 -11 10 -6 0 -65 33 -132 73 -130 77 -157 91 -157 79z"/> <path d="M621 1774 c0 -11 3 -14 6 -6 3 7 2 16 -1 19 -3 4 -6 -2 -5 -13z"/> <path d="M1554 1755 c-21 -16 -8 -20 15 -6 10 6 25 4 45 -6 l30 -15 -29 -16 c-26 -13 -32 -13 -57 1 l-27 16 3 -110 c2 -60 6 -113 10 -116 6 -7 9 46 6 136 -1 34 2 51 9 47 6 -4 10 -48 9 -107 0 -66 4 -105 12 -112 9 -9 11 -8 10 3 -1 8 -2 60 -1 115 l1 100 30 13 c38 17 38 37 0 57 -36 19 -41 19 -66 0z"/> <path d="M2895 1756 c-18 -13 -18 -14 2 -20 30 -10 56 3 42 20 -14 17 -20 17 -44 0z"/> <path d="M2852 1731 c-18 -11 10 -34 32 -25 20 8 21 20 0 28 -19 7 -16 7 -32 -3z"/> <path d="M2926 1720 c-25 -16 -27 -20 -13 -26 22 -8 79 15 74 30 -6 18 -30 16 -61 -4z"/> <path d="M632 1710 c0 -14 2 -19 5 -12 2 6 2 18 0 25 -3 6 -5 1 -5 -13z"/> <path d="M2795 1698 c-16 -10 -34 -20 -40 -22 -15 -6 18 -27 33 -21 7 3 23 -2 35 -10 14 -9 28 -11 36 -6 19 12 3 34 -21 27 -12 -2 -26 1 -33 8 -10 10 -6 12 21 12 19 -1 34 -4 34 -7 0 -13 32 -19 47 -10 14 7 14 10 -4 19 -11 6 -23 9 -26 5 -4 -3 -17 1 -29 9 -21 13 -26 13 -53 -4z"/> <path d="M2967 1692 c-30 -20 -35 -27 -23 -34 16 -9 46 -1 46 12 0 5 -5 10 -11 12 -7 2 4 4 25 4 20 0 36 -1 36 -3 0 -1 -14 -10 -32 -19 -28 -14 -29 -17 -14 -26 13 -7 27 -5 52 8 19 10 34 21 34 24 0 3 -17 15 -38 26 l-37 21 -38 -25z"/> <path d="M3236 1702 c-2 -4 4 -18 14 -31 l18 -24 6 21 c4 12 4 26 1 32 -7 12 -32 13 -39 2z"/> <path d="M1653 1665 c0 -22 2 -30 4 -17 2 12 2 30 0 40 -3 9 -5 -1 -4 -23z"/> <path d="M646 1600 c3 -36 8 -81 11 -101 5 -35 3 -38 -40 -63 -60 -35 -73 -52 -57 -70 14 -18 284 -176 300 -176 18 0 290 161 290 172 0 15 -17 6 -161 -77 l-129 -75 -132 76 c-73 43 -141 83 -151 89 -15 11 2 23 133 98 l151 86 147 -86 148 -85 2 -56 c1 -30 4 -58 7 -61 3 -3 5 26 3 63 -2 57 -7 71 -23 80 -65 36 -87 59 -83 87 3 15 1 26 -4 23 -4 -3 -8 -16 -8 -30 0 -30 -2 -30 -53 4 -112 76 -154 90 -177 62 -9 -10 -142 -91 -145 -88 -2 2 -10 46 -19 98 -12 77 -14 83 -10 30z"/> <path d="M2687 1636 c-19 -13 -45 -27 -58 -31 -21 -7 -22 -8 -5 -21 22 -15 49 -7 42 13 -4 11 -1 13 14 8 29 -9 44 3 28 23 -11 13 -11 14 7 4 26 -13 67 4 44 19 -21 13 -33 11 -72 -15z"/> <path d="M2891 1651 c-22 -14 18 -32 43 -19 15 8 16 12 5 19 -18 11 -30 11 -48 0z"/> <path d="M3048 1636 c-42 -23 -46 -31 -22 -40 22 -8 110 44 92 55 -18 12 -28 10 -70 -15z"/> <path d="M3293 1640 c10 -15 14 -34 10 -58 -4 -24 -3 -33 5 -28 6 4 8 14 5 23 -6 14 0 13 31 -5 21 -13 41 -21 44 -18 2 3 -9 13 -26 23 -17 9 -36 31 -44 47 -7 16 -19 32 -27 34 -11 4 -11 0 2 -18z"/> <path d="M1071 1634 c0 -11 3 -14 6 -6 3 7 2 16 -1 19 -3 4 -6 -2 -5 -13z"/> <path d="M2775 1631 c-3 -5 -1 -12 5 -16 14 -9 52 4 45 16 -8 12 -42 12 -50 0z"/> <path d="M2952 1631 c-10 -6 -10 -10 3 -21 12 -10 18 -10 30 0 13 11 13 15 3 21 -7 5 -15 9 -18 9 -3 0 -11 -4 -18 -9z"/> <path d="M2836 1615 c-10 -8 -24 -16 -30 -19 -16 -7 14 -25 31 -19 8 3 12 11 9 19 -3 8 3 12 19 11 13 -1 25 3 27 8 5 16 -35 16 -56 0z"/> <path d="M3141 1616 c-13 -7 -20 -16 -15 -19 5 -3 20 0 33 7 13 7 20 16 15 19 -5 3 -20 0 -33 -7z"/> <path d="M3196 1613 c-6 -14 -5 -15 5 -6 7 7 10 15 7 18 -3 3 -9 -2 -12 -12z"/> <path d="M2735 1610 c-7 -11 2 -30 13 -30 4 0 14 5 22 10 13 9 13 11 0 20 -19 12 -27 12 -35 0z"/> <path d="M2885 1594 c-41 -22 -42 -24 -25 -34 19 -12 22 -12 40 0 12 8 12 12 2 18 -20 14 50 8 74 -6 17 -9 25 -8 40 3 20 15 21 15 -36 21 -14 1 -34 5 -45 8 -11 3 -33 -2 -50 -10z"/> <path d="M3070 1594 l-25 -15 30 6 c29 6 29 6 10 -9 -11 -8 -25 -16 -32 -16 -6 0 -18 -7 -26 -15 -13 -13 -18 -12 -41 6 -26 20 -58 23 -56 4 1 -5 13 -9 28 -8 25 2 26 1 9 -12 -18 -13 -17 -14 3 -20 23 -7 159 62 144 74 -5 3 -11 9 -14 13 -3 3 -16 0 -30 -8z"/> <path d="M1062 1570 c0 -19 2 -27 5 -17 2 9 2 25 0 35 -3 9 -5 1 -5 -18z"/> <path d="M1653 1520 c0 -47 2 -66 4 -42 2 23 2 61 0 85 -2 23 -4 4 -4 -43z"/> <path d="M3978 1225 c2 -221 -1 -375 -6 -375 -13 0 -29 21 -35 45 -4 17 -5 17 -6 -4 -1 -20 -3 -21 -16 -11 -12 10 -15 30 -12 94 4 91 1 106 -20 106 -15 0 -243 -118 -243 -125 0 -3 7 -2 16 2 14 5 15 3 4 -17 -12 -22 -10 -114 3 -126 3 -3 26 6 52 21 25 15 48 25 51 22 3 -3 -8 -13 -25 -22 -17 -8 -31 -18 -31 -21 0 -2 9 0 19 6 25 13 34 13 25 -1 -4 -8 0 -8 15 0 25 14 28 22 4 15 -15 -5 -15 -3 1 10 23 18 40 21 30 5 -4 -7 1 -7 16 1 12 6 24 9 27 7 2 -3 -27 -22 -65 -43 -39 -21 -68 -42 -65 -47 6 -11 -27 -36 -47 -36 -8 0 -3 7 13 15 15 8 27 17 27 20 0 2 -9 0 -20 -6 -12 -6 -20 -7 -20 -1 0 11 -303 -165 -308 -178 -4 -12 189 -121 215 -121 11 0 103 48 204 106 249 144 233 133 218 150 -6 8 -20 14 -31 14 -11 0 -33 9 -49 21 -23 16 -29 17 -29 6 0 -13 -40 -47 -55 -47 -3 0 -5 22 -4 48 1 27 -1 54 -5 60 -4 7 -3 12 3 12 5 0 13 -5 17 -11 3 -6 15 -9 25 -6 12 3 19 0 19 -9 0 -7 9 -18 20 -24 18 -10 20 -8 19 27 -1 21 -3 30 -6 21 -5 -21 -4 -21 -35 -5 -14 7 -23 18 -20 25 2 6 -1 12 -8 12 -6 0 -8 5 -4 11 4 8 0 8 -15 0 -14 -8 -21 -8 -21 -1 0 7 -6 7 -21 0 -11 -7 -23 -9 -25 -7 -5 5 97 67 109 67 7 0 3 -22 -7 -39 -7 -10 -6 -12 4 -6 10 6 12 4 7 -8 -4 -10 -2 -14 6 -11 7 2 53 -19 102 -49 50 -29 152 -88 228 -132 l137 -79 0 -303 c0 -167 4 -303 9 -303 13 0 18 256 8 450 -4 96 -10 325 -13 508 l-5 332 -39 26 c-22 15 -46 24 -55 20 -17 -6 -16 18 -16 -349 l1 -287 -38 15 c-20 9 -41 20 -46 26 -6 5 -18 9 -28 9 -17 0 -18 19 -18 338 0 221 -4 332 -10 322 -6 -9 -10 -139 -10 -317 0 -236 -3 -303 -12 -303 -20 1 -45 23 -51 45 -4 17 -5 17 -6 2 -1 -15 -5 -16 -21 -7 -19 10 -20 21 -20 374 0 354 1 364 19 359 11 -3 28 -12 38 -21 18 -16 30 -24 86 -54 12 -7 24 -15 27 -18 7 -7 46 -29 105 -59 28 -14 64 -35 80 -47 78 -55 187 -102 149 -64 -8 8 -510 300 -516 300 -2 0 -2 -169 0 -375z m335 80 l37 -19 0 -323 c0 -178 -2 -323 -5 -323 -3 0 -24 9 -45 20 l-40 20 0 326 c0 179 3 324 8 322 4 -2 24 -12 45 -23z m-423 -292 l0 -58 -58 -32 c-31 -18 -81 -46 -110 -63 l-53 -31 2 71 2 70 36 10 c20 6 65 28 101 49 36 22 68 40 73 40 4 1 7 -25 7 -56z m-80 -211 c0 -5 -12 -14 -27 -21 l-28 -12 25 21 c29 22 30 23 30 12z m1 -36 c-8 -9 -8 -15 -1 -18 5 -1 1 -9 -10 -16 -12 -7 -20 -8 -20 -2 0 5 5 10 12 10 6 0 9 3 5 6 -6 6 -117 -53 -117 -63 0 -3 20 7 45 21 25 15 45 23 45 19 0 -7 -91 -63 -103 -63 -3 0 -3 8 0 18 2 9 34 36 71 59 70 44 92 52 73 29z m-154 -37 c7 -7 8 -20 3 -34 -21 -56 21 -88 56 -43 27 35 41 40 63 26 15 -9 23 -9 34 0 26 22 107 62 107 52 0 -4 -60 -43 -132 -85 -134 -77 -204 -126 -93 -65 107 59 130 72 140 79 47 34 103 57 125 52 22 -6 17 -11 -55 -55 -44 -27 -93 -57 -110 -66 -16 -10 -70 -41 -119 -69 -99 -57 -104 -58 -180 -14 -91 53 -100 59 -103 70 -2 5 27 27 64 47 37 20 87 47 111 61 23 14 44 25 47 25 2 0 6 -35 8 -77 l3 -78 2 93 c2 90 7 103 29 81z m150 -36 c-9 -9 -20 -13 -24 -9 -4 4 -1 11 7 16 25 16 35 11 17 -7z m-103 -38 c-10 -8 -23 -14 -29 -14 -5 0 -1 6 9 14 11 8 24 15 30 15 5 0 1 -7 -10 -15z"/> <path d="M2685 1580 c-8 -13 20 -24 42 -16 15 6 15 8 3 16 -20 13 -37 12 -45 0z"/> <path d="M3195 1580 c-7 -12 13 -70 24 -70 10 0 1 69 -9 75 -5 3 -12 0 -15 -5z"/> <path d="M2575 1570 c-8 -13 20 -24 41 -16 20 8 9 26 -16 26 -10 0 -22 -5 -25 -10z"/> <path d="M2760 1570 c-12 -8 -12 -10 3 -16 22 -8 50 3 42 16 -8 12 -25 13 -45 0z"/> <path d="M1382 1550 c0 -14 2 -19 5 -12 2 6 2 18 0 25 -3 6 -5 1 -5 -13z"/> <path d="M2645 1556 c-17 -12 -17 -13 -1 -19 10 -4 24 -3 32 1 13 7 13 10 1 20 -10 9 -18 9 -32 -2z"/> <path d="M1880 1549 c0 -5 5 -7 10 -4 6 3 10 8 10 11 0 2 -4 4 -10 4 -5 0 -10 -5 -10 -11z"/> <path d="M2535 1546 c-18 -13 -18 -14 3 -20 12 -4 26 -4 32 -1 6 3 17 -1 26 -9 12 -13 20 -14 36 -5 19 10 20 12 5 21 -10 5 -21 6 -27 3 -5 -3 -20 1 -33 10 -20 13 -26 13 -42 1z"/> <path d="M2715 1546 c-18 -13 -18 -14 2 -20 11 -4 28 -3 38 0 12 5 16 4 12 -3 -7 -12 20 -26 33 -18 5 3 20 0 34 -6 13 -6 33 -8 43 -5 17 7 17 8 0 17 -9 6 -26 8 -36 4 -10 -3 -24 1 -31 10 -8 9 -8 15 -2 15 6 0 14 -5 17 -10 4 -7 12 -7 23 -1 12 7 22 5 33 -5 16 -14 49 -10 49 6 0 10 -30 21 -40 15 -5 -3 -20 0 -34 6 -20 10 -30 9 -51 -5 -22 -15 -27 -15 -48 -1 -20 13 -26 13 -42 1z"/> <path d="M1845 1530 c-3 -6 1 -7 9 -4 18 7 21 14 7 14 -6 0 -13 -4 -16 -10z"/> <path d="M3345 1516 c-22 -14 -42 -21 -45 -17 -3 4 -22 6 -42 3 -33 -4 -38 -8 -38 -31 -1 -14 -2 -60 -3 -102 -2 -56 1 -75 10 -72 7 3 15 26 18 51 3 26 10 67 15 92 8 40 8 37 7 -34 -2 -102 17 -115 27 -19 4 37 7 73 8 80 1 7 5 10 9 7 14 -9 66 24 72 46 3 11 4 20 4 20 -1 0 -20 -11 -42 -24z"/> <path d="M2486 1521 c-3 -5 1 -14 9 -21 12 -10 18 -10 30 0 13 11 13 15 3 21 -17 11 -35 11 -42 0z"/> <path d="M2672 1521 c-10 -6 -10 -10 3 -21 12 -10 18 -10 30 0 13 11 13 15 3 21 -7 5 -15 9 -18 9 -3 0 -11 -4 -18 -9z"/> <path d="M1381 1504 c0 -11 3 -14 6 -6 3 7 2 16 -1 19 -3 4 -6 -2 -5 -13z"/> <path d="M2917 1508 c-16 -12 -16 -14 1 -24 14 -9 22 -8 37 3 17 12 18 15 5 23 -20 13 -23 12 -43 -2z"/> <path d="M1752 1490 c0 -14 2 -19 5 -12 2 6 2 18 0 25 -3 6 -5 1 -5 -13z"/> <path d="M2444 1496 c-17 -13 -17 -14 3 -20 11 -4 28 -4 37 0 9 3 16 2 16 -4 0 -13 27 -23 45 -16 11 5 13 10 5 19 -8 10 -1 11 32 8 24 -3 55 -5 70 -5 15 -1 26 -6 25 -12 -1 -6 8 -11 21 -11 12 0 22 4 23 9 0 12 -72 37 -89 31 -7 -2 -24 1 -38 7 -20 10 -30 8 -55 -6 -27 -16 -32 -16 -53 -2 -20 12 -27 13 -42 2z"/> <path d="M2725 1499 c-4 -6 -2 -15 5 -19 17 -10 42 -1 37 14 -5 16 -34 19 -42 5z"/> <path d="M2795 1486 c-16 -12 -16 -13 -1 -19 18 -7 46 1 46 13 0 15 -28 19 -45 6z"/> <path d="M778 1455 c-36 -19 -69 -39 -73 -45 -10 -15 -23 -12 -28 8 -3 10 -5 7 -6 -10 -1 -20 8 -34 32 -52 19 -15 39 -26 45 -26 7 0 12 -3 12 -7 0 -5 23 -19 50 -32 56 -28 53 -28 160 38 60 37 80 57 80 80 -1 11 -5 9 -13 -7 -7 -12 -50 -45 -95 -71 l-82 -49 -80 48 c-45 26 -83 50 -86 53 -6 6 150 97 166 97 6 0 43 -19 81 -41 38 -23 72 -39 75 -36 7 7 -137 87 -156 86 -8 0 -45 -15 -82 -34z"/> <path d="M1541 1474 c0 -11 3 -14 6 -6 3 7 2 16 -1 19 -3 4 -6 -2 -5 -13z"/> <path d="M2761 1417 c-106 -61 -121 -72 -107 -83 14 -10 35 -2 124 50 59 34 116 67 126 73 19 10 19 11 0 21 -15 8 -43 -4 -143 -61z"/> <path d="M1872 1452 c-2 -32 -2 -32 -27 -16 -24 16 -65 12 -65 -7 0 -12 14 -11 27 2 8 8 17 7 32 -3 27 -16 26 -22 -2 -35 -27 -13 -62 8 -70 42 -3 13 -5 10 -6 -11 -1 -23 5 -34 23 -44 52 -27 101 11 93 73 l-4 32 -1 -33z"/> <path d="M2400 1470 c-13 -9 -13 -11 0 -20 8 -5 17 -10 20 -10 3 0 12 5 20 10 13 9 13 11 0 20 -8 5 -17 10 -20 10 -3 0 -12 -5 -20 -10z"/> <path d="M2580 1470 c-13 -9 -13 -11 0 -20 8 -5 17 -10 20 -10 3 0 12 5 20 10 13 9 13 11 0 20 -8 5 -17 10 -20 10 -3 0 -12 -5 -20 -10z"/> <path d="M3631 1457 c-2 -62 49 -101 94 -71 14 9 25 22 25 30 0 8 -10 4 -25 -11 -21 -22 -27 -24 -50 -13 -14 6 -27 21 -30 32 -2 12 -6 30 -8 41 -3 14 -5 12 -6 -8z"/> <path d="M2747 1463 c-4 -3 -2 -12 4 -19 8 -10 16 -11 31 -3 17 9 18 13 7 20 -17 10 -33 11 -42 2z"/> <path d="M2345 1438 c-16 -10 -34 -20 -40 -22 -15 -7 18 -27 34 -21 8 3 22 -1 31 -10 16 -15 50 -11 50 5 0 11 -28 20 -43 14 -8 -3 -20 2 -27 11 -8 9 -8 15 -2 15 6 0 14 -5 17 -10 4 -6 12 -7 23 -1 11 6 20 5 27 -6 8 -11 19 -13 35 -8 23 7 23 8 5 21 -10 7 -22 11 -27 8 -5 -3 -19 1 -31 9 -19 12 -25 12 -52 -5z"/> <path d="M2460 1450 c-12 -8 -12 -10 3 -16 22 -8 50 3 42 16 -8 12 -25 13 -45 0z"/> <path d="M2639 1449 c-10 -6 -11 -11 -3 -19 11 -11 44 -4 44 10 0 13 -26 19 -41 9z"/> <path d="M2510 1426 c-19 -13 -46 -27 -59 -31 -23 -7 -24 -8 -7 -21 22 -16 49 -7 41 13 -3 11 -1 13 10 9 8 -3 22 -3 30 0 12 5 13 10 4 20 -8 9 -8 14 -1 14 6 0 14 -5 18 -11 4 -8 9 -8 17 0 6 6 15 11 21 11 5 0 6 -3 3 -7 -4 -3 -2 -12 4 -19 9 -11 16 -11 32 -2 21 11 20 12 -18 29 -52 23 -55 23 -95 -5z"/> <path d="M2686 1425 c-10 -8 -24 -16 -30 -19 -16 -7 14 -25 31 -19 8 3 12 11 9 19 -3 8 3 12 19 11 13 -1 25 3 27 8 5 16 -35 16 -56 0z"/> <path d="M3665 1430 c-3 -6 1 -7 9 -4 18 7 21 14 7 14 -6 0 -13 -4 -16 -10z"/> <path d="M3700 1436 c0 -2 7 -7 16 -10 8 -3 12 -2 9 4 -6 10 -25 14 -25 6z"/> <path d="M4134 1411 c8 -13 66 -44 72 -39 2 3 -15 15 -38 28 -22 13 -38 18 -34 11z"/> <path d="M2545 1396 c-18 -13 -18 -14 3 -20 12 -4 26 -5 32 -1 5 3 18 0 28 -6 22 -14 57 -5 47 12 -4 6 -17 8 -29 5 -12 -3 -32 1 -43 9 -17 12 -23 12 -38 1z"/> <path d="M2246 1383 c-27 -14 -28 -17 -12 -28 14 -11 22 -10 47 3 52 30 18 54 -35 25z"/> <path d="M2752 1350 c-46 -26 -84 -51 -85 -54 -1 -4 21 -19 49 -35 l50 -29 85 49 c46 27 85 52 86 57 2 6 -92 64 -100 61 -1 -1 -39 -23 -85 -49z m111 7 c32 -17 26 -26 -42 -65 -52 -29 -56 -30 -84 -15 l-30 15 24 19 c13 10 30 19 37 19 6 0 12 3 12 8 0 6 35 28 51 31 4 0 18 -5 32 -12z"/> <path d="M2301 1359 c-29 -18 -32 -23 -19 -30 9 -5 23 -6 32 -3 17 6 21 20 9 27 -5 2 -2 2 6 0 8 -2 23 -1 34 3 16 5 17 8 6 15 -21 13 -30 11 -68 -12z"/> <path d="M2503 1373 c-18 -7 -16 -20 3 -27 22 -9 50 14 32 25 -14 10 -17 10 -35 2z"/> <path d="M2395 1360 c-3 -6 1 -13 9 -16 21 -8 49 3 41 16 -8 13 -42 13 -50 0z"/> <path d="M2571 1360 c-22 -13 -2 -32 28 -25 19 4 15 -1 -18 -21 -42 -26 -43 -28 -24 -37 16 -7 31 -3 62 15 l41 24 -28 20 c-42 31 -47 33 -61 24z m34 -60 c3 -5 2 -10 -4 -10 -5 0 -13 5 -16 10 -3 6 -2 10 4 10 5 0 13 -4 16 -10z"/> <path d="M2341 1330 c-31 -16 -33 -18 -15 -28 14 -8 25 -6 46 6 51 30 22 50 -31 22z"/> <path d="M2412 1319 c-37 -22 -50 -35 -43 -42 15 -15 95 22 81 38 -13 16 47 14 76 -3 18 -9 24 -9 34 3 7 8 9 16 4 16 -5 1 -20 3 -34 4 -14 2 -34 6 -45 9 -13 4 -39 -5 -73 -25z"/> <path d="M560 1321 c0 -12 6 -21 14 -21 15 0 168 -78 176 -90 3 -4 19 -14 37 -23 64 -33 64 -35 60 -196 -2 -80 -1 -274 3 -431 l6 -285 3 440 2 440 49 23 c28 13 71 37 98 53 26 17 69 44 96 60 26 17 46 33 43 36 -3 3 -69 -32 -147 -76 l-141 -82 -142 82 c-78 45 -145 84 -149 86 -5 2 -8 -5 -8 -16z"/> <path d="M3300 1328 c0 -11 -14 -24 -32 -32 -27 -12 -29 -15 -12 -15 32 -1 66 30 54 49 -8 13 -10 12 -10 -2z"/> <path d="M3191 1314 c0 -11 3 -14 6 -6 3 7 2 16 -1 19 -3 4 -6 -2 -5 -13z"/> <path d="M3780 1305 c-5 -6 -49 -32 -97 -58 -48 -27 -106 -59 -128 -73 -22 -14 -48 -27 -57 -31 -10 -3 -18 -12 -18 -20 0 -16 -13 -23 185 92 165 96 178 105 146 102 -12 -1 -26 -6 -31 -12z"/> <path d="M2450 1289 c-46 -28 -45 -28 -33 -40 8 -8 25 -3 61 17 49 28 58 44 24 44 -9 0 -33 -10 -52 -21z"/> <path d="M3892 1270 c0 -19 2 -27 5 -17 2 9 2 25 0 35 -3 9 -5 1 -5 -18z"/> <path d="M560 975 c0 -175 2 -316 5 -313 7 7 7 620 0 626 -3 3 -5 -138 -5 -313z"/> <path d="M1660 1081 c0 -208 0 -211 -19 -194 -14 13 -19 32 -19 73 -2 301 -2 301 -18 307 -8 3 -28 -3 -43 -15 -15 -11 -51 -33 -80 -48 -28 -16 -60 -34 -69 -39 -37 -22 -67 -39 -72 -40 -19 -4 -71 -43 -78 -60 -5 -11 -7 -57 -5 -102 l4 -82 -40 -21 c-22 -11 -43 -20 -45 -20 -3 0 -7 87 -9 193 l-2 192 -3 -208 -2 -209 53 31 52 30 3 100 3 99 165 97 c91 53 168 94 170 92 3 -2 3 -84 2 -181 l-3 -176 -27 24 c-26 21 -28 29 -28 96 0 93 -9 86 -14 -11 l-4 -75 174 -99 174 -100 -3 -273 c-2 -253 -1 -272 16 -272 9 0 17 -4 17 -10 0 -5 -7 -7 -15 -4 -8 4 -15 1 -15 -5 0 -6 7 -11 16 -11 8 0 13 -3 11 -8 -4 -6 -38 -7 -79 -3 -14 2 -8 41 6 41 8 0 16 7 19 15 5 12 2 12 -18 3 -27 -12 -38 -53 -19 -69 8 -6 25 -8 39 -5 25 6 25 6 25 -64 0 -42 4 -70 10 -70 6 0 10 6 9 13 -1 6 -1 36 0 65 1 51 2 52 30 52 16 0 36 -6 43 -14 12 -12 18 -12 39 0 13 7 54 13 92 14 l67 0 1 -50 c2 -63 2 -67 12 -76 4 -4 7 25 7 65 l0 71 53 -25 c28 -14 45 -20 36 -13 -15 12 -15 16 -3 33 13 18 15 18 33 1 11 -10 30 -17 43 -15 25 2 55 -8 78 -26 28 -22 171 -96 180 -93 5 2 -45 34 -110 72 -66 37 -117 73 -114 78 4 6 10 5 16 -3 6 -10 8 -7 7 11 -2 40 0 48 17 54 12 4 15 2 10 -9 -3 -10 1 -15 13 -15 14 0 18 -5 14 -20 -7 -25 -23 -26 -24 -2 0 14 -2 14 -9 -3 -13 -30 -12 -31 20 -33 17 -1 42 -2 58 -3 15 -1 35 -6 46 -11 12 -7 22 -6 29 1 21 21 27 11 27 -44 0 -30 5 -55 10 -55 6 0 10 25 10 55 0 54 0 55 30 55 27 0 30 3 30 34 0 36 -10 47 -62 75 -18 10 -84 48 -147 84 -63 37 -116 65 -118 63 -2 -2 53 -36 122 -76 69 -40 124 -78 122 -84 -6 -19 -227 -7 -252 14 -11 10 -19 8 -40 -8 -21 -17 -22 -21 -9 -26 11 -4 18 1 21 14 5 19 6 19 18 4 8 -11 19 -15 30 -11 15 6 16 3 10 -20 -13 -57 -59 -69 -80 -21 -6 13 -34 36 -62 51 l-53 28 0 112 c0 63 -4 106 -9 99 -10 -16 -7 -200 4 -226 7 -16 5 -18 -13 -14 -12 4 -25 2 -28 -3 -8 -13 -158 -11 -171 2 -8 8 -13 8 -17 0 -4 -6 -18 -11 -32 -11 -18 0 -24 5 -24 23 -1 271 -6 514 -11 557 l-6 55 -1 -48 -2 -48 -27 19 c-16 11 -60 38 -100 62 -40 23 -75 49 -78 59 -8 27 -1 361 8 361 12 0 83 -37 99 -52 8 -7 23 -18 33 -24 11 -6 43 -23 70 -39 28 -15 59 -34 70 -41 11 -8 27 -14 35 -14 9 0 26 -9 38 -20 12 -11 25 -20 31 -20 5 0 11 -4 13 -8 3 -9 73 -50 164 -98 33 -17 85 -47 115 -66 77 -50 103 -65 114 -68 6 -1 23 -11 38 -22 15 -11 33 -21 40 -22 7 -1 32 -15 57 -30 25 -16 64 -40 87 -55 24 -14 43 -29 43 -33 0 -5 5 -8 10 -8 6 0 10 7 10 15 0 8 8 15 17 15 16 0 64 27 318 177 61 36 133 77 160 91 28 13 52 28 55 32 5 8 65 40 75 40 3 0 5 -21 6 -47 1 -86 18 -96 18 -12 1 68 4 78 24 92 12 8 19 18 15 22 -4 4 -155 -79 -336 -184 -180 -104 -336 -193 -345 -197 -11 -4 -78 30 -194 97 -98 56 -322 185 -498 287 -176 102 -339 196 -362 209 l-43 25 0 -211z m336 -921 c8 0 14 5 14 10 0 6 -7 10 -16 10 -8 0 -13 3 -11 8 3 4 20 7 39 6 27 -1 33 -5 35 -25 1 -15 0 -17 -3 -6 -3 9 -10 17 -15 17 -6 0 -7 -5 -4 -11 8 -12 -23 -39 -45 -38 -10 0 -8 3 5 9 20 9 20 9 0 10 -11 2 -23 2 -27 1 -5 0 -8 14 -7 32 l1 32 10 -27 c5 -16 16 -28 24 -28z m152 -11 c-8 -5 -21 -1 -33 11 -23 22 -35 25 -35 10 0 -5 8 -10 17 -10 12 0 14 -3 6 -11 -15 -15 -33 -3 -33 23 0 16 5 19 25 16 14 -3 28 -1 31 4 3 4 10 6 15 3 5 -4 10 0 10 7 1 7 4 0 6 -16 3 -17 -1 -32 -9 -37z m54 50 c2 -5 10 -11 18 -12 8 -2 21 -6 28 -10 7 -5 12 -3 12 4 0 7 2 10 5 7 8 -7 -13 -58 -23 -58 -5 0 -8 12 -6 28 2 15 1 20 -2 12 -17 -39 -49 -33 -50 10 -1 29 11 41 18 19z m448 -4 c0 -9 6 -12 18 -9 14 5 14 4 3 -4 -12 -9 -12 -13 -2 -26 9 -11 10 -16 2 -16 -6 0 -11 3 -11 8 0 4 -18 6 -40 4 -22 -2 -40 -8 -40 -13 0 -5 -5 -9 -10 -9 -6 0 -8 10 -5 23 5 18 2 23 -14 24 -12 1 -21 -2 -21 -8 0 -5 8 -9 17 -9 13 0 14 -3 5 -12 -9 -9 -17 -7 -33 11 -12 12 -24 20 -27 16 -4 -3 0 -10 7 -14 7 -5 9 -11 4 -14 -14 -9 -36 10 -30 26 8 22 157 21 158 -2 0 -13 2 -13 6 -2 3 8 -2 20 -13 28 -17 12 -17 13 4 13 13 0 22 -6 22 -15z m-703 -25 c3 -22 -12 -35 -23 -19 -4 8 -3 9 4 5 7 -4 12 -3 12 3 0 5 -5 11 -12 13 -6 2 -8 10 -4 17 10 15 19 7 23 -19z"/> <path d="M2130 170 c0 -5 5 -10 10 -10 6 0 10 5 10 10 0 6 -4 10 -10 10 -5 0 -10 -4 -10 -10z"/> <path d="M2200 170 c0 -5 5 -10 10 -10 6 0 10 5 10 10 0 6 -4 10 -10 10 -5 0 -10 -4 -10 -10z"/> <path d="M2580 170 c0 -5 5 -10 10 -10 6 0 10 5 10 10 0 6 -4 10 -10 10 -5 0 -10 -4 -10 -10z"/> <path d="M2510 1270 c-13 -9 -13 -11 0 -20 11 -7 6 -8 -16 -4 -35 7 -51 -7 -30 -25 11 -9 23 -7 52 10 51 30 51 29 34 39 -19 12 -22 12 -40 0z"/> <path d="M1161 1244 c0 -11 3 -14 6 -6 3 7 2 16 -1 19 -3 4 -6 -2 -5 -13z"/> <path d="M651 1147 c-8 -10 -10 -122 -7 -385 2 -205 1 -372 -3 -371 -3 0 -22 10 -41 23 -32 21 -36 22 -64 7 -17 -9 -36 -22 -44 -29 -20 -18 4 -15 38 5 27 16 31 16 64 -2 l36 -20 2 -165 c1 -91 3 -133 5 -95 5 99 6 101 49 75 19 -12 38 -20 41 -17 3 4 -11 14 -31 23 l-36 18 0 468 0 469 45 -27 c56 -32 60 -24 5 11 -46 29 -44 29 -59 12z"/> <path d="M1435 1136 c-120 -65 -135 -77 -135 -107 0 -29 22 -41 35 -19 3 5 25 19 48 30 72 35 99 52 93 57 -2 3 -30 -9 -61 -27 -31 -18 -58 -30 -61 -27 -8 7 117 78 127 71 5 -3 9 4 9 15 0 30 -11 31 -55 7z m45 6 c0 -5 -12 -15 -27 -22 -16 -8 -40 -23 -56 -33 -15 -10 -33 -17 -39 -15 -6 2 17 21 53 41 73 41 69 40 69 29z m-150 -92 c-8 -5 -17 -7 -19 -4 -3 3 1 9 9 14 8 5 17 7 19 4 3 -3 -1 -9 -9 -14z m0 -30 c-8 -5 -17 -7 -19 -4 -3 3 1 9 9 14 8 5 17 7 19 4 3 -3 -1 -9 -9 -14z"/> <path d="M3890 1130 c0 -5 7 -7 15 -4 8 4 15 8 15 10 0 2 -7 4 -15 4 -8 0 -15 -4 -15 -10z"/> <path d="M3934 1025 c0 -60 1 -84 3 -52 2 32 2 81 0 110 -2 29 -3 3 -3 -58z"/> <path d="M3845 1108 c-11 -7 -26 -18 -33 -25 -7 -7 -20 -13 -28 -13 -8 0 -14 -5 -14 -11 0 -10 81 31 105 52 13 13 -6 11 -30 -3z"/> <path d="M1507 1099 c-12 -7 -17 -23 -17 -54 0 -36 -3 -43 -15 -39 -8 4 -22 1 -30 -6 -9 -7 -18 -10 -22 -7 -10 11 -44 -13 -53 -39 -6 -14 -18 -24 -29 -24 -10 0 -21 -7 -25 -15 -7 -19 -1 -19 30 1 29 20 40 14 25 -14 -6 -12 -11 -34 -11 -50 0 -17 -6 -32 -14 -35 -11 -5 -16 4 -19 36 -3 39 -4 38 -5 -11 -2 -51 -1 -53 21 -47 22 6 22 6 2 -11 -27 -22 -12 -16 68 29 67 39 94 61 36 32 -60 -32 -39 -7 25 29 65 37 84 53 47 41 -17 -5 -19 1 -20 79 -1 71 2 86 16 95 10 5 16 12 13 14 -3 3 -13 1 -23 -4z m-30 -114 c-4 -8 -3 -17 2 -19 15 -9 -3 -81 -21 -84 -14 -3 -17 3 -14 32 1 25 -2 36 -11 36 -9 0 -13 -14 -13 -44 0 -26 -6 -48 -15 -56 -13 -11 -15 -4 -15 53 0 45 4 68 15 77 12 10 15 10 15 -4 0 -22 17 -20 30 4 12 23 35 27 27 5z m-81 -170 c-11 -8 -25 -15 -30 -15 -6 0 -2 7 8 15 11 8 25 15 30 15 6 0 2 -7 -8 -15z"/> <path d="M2812 1000 c0 -19 2 -27 5 -17 2 9 2 25 0 35 -3 9 -5 1 -5 -18z"/> <path d="M2681 970 c0 -14 2 -42 6 -63 15 -95 125 -80 121 16 -1 37 -2 38 -5 10 -5 -37 -9 -39 -37 -18 -20 15 -56 4 -56 -17 0 -9 3 -9 12 0 16 16 30 15 53 -2 18 -13 18 -14 -3 -25 -15 -8 -27 -8 -45 0 -20 9 -27 22 -35 68 -5 31 -10 45 -11 31z"/> <path d="M1881 924 c0 -11 3 -14 6 -6 3 7 2 16 -1 19 -3 4 -6 -2 -5 -13z"/> <path d="M1024 830 c0 -52 1 -74 3 -47 2 26 2 68 0 95 -2 26 -3 4 -3 -48z"/> <path d="M3630 841 l0 -82 22 15 c26 18 42 21 32 5 -3 -6 8 -3 25 5 17 9 31 19 31 22 0 2 -9 0 -19 -6 -25 -13 -34 -13 -26 0 4 7 -3 7 -20 0 -15 -6 -28 -10 -29 -10 -2 0 -4 28 -5 62 -3 92 -11 84 -11 -11z"/> <path d="M1286 893 c-6 -14 -5 -15 5 -6 7 7 10 15 7 18 -3 3 -9 -2 -12 -12z"/> <path d="M3855 900 c-3 -6 1 -7 9 -4 18 7 21 14 7 14 -6 0 -13 -4 -16 -10z"/> <path d="M753 825 c0 -44 2 -61 4 -37 2 23 2 59 0 80 -2 20 -4 1 -4 -43z"/> <path d="M1882 880 c0 -14 2 -19 5 -12 2 6 2 18 0 25 -3 6 -5 1 -5 -13z"/> <path d="M1507 878 c-12 -10 -14 -17 -6 -28 9 -13 10 -13 6 0 -2 8 3 20 12 27 9 7 13 13 10 13 -3 0 -13 -6 -22 -12z"/> <path d="M1546 878 c3 -4 11 -5 19 -1 21 7 19 12 -4 10 -11 0 -18 -5 -15 -9z"/> <path d="M3302 870 c0 -14 2 -19 5 -12 2 6 2 18 0 25 -3 6 -5 1 -5 -13z"/> <path d="M334 831 c-18 -11 -35 -24 -38 -30 -10 -15 6 -40 35 -54 23 -12 25 -20 35 -142 l11 -130 2 128 c1 94 4 127 14 127 6 0 23 9 37 20 14 11 27 20 30 20 3 0 4 -43 3 -96 -1 -57 2 -93 8 -87 5 5 9 40 9 78 0 39 0 84 0 102 0 27 -6 36 -43 57 -52 31 -63 32 -103 7z m93 -22 l34 -22 -40 -24 -41 -24 -41 24 -40 24 33 21 c41 27 52 27 95 1z"/> <path d="M1565 822 c-3 -3 -5 -17 -5 -31 1 -23 2 -24 11 -8 7 12 17 16 30 12 13 -4 19 -2 19 8 0 14 -44 29 -55 19z"/> <path d="M3311 810 c-1 -28 -18 -44 -72 -74 -18 -10 -56 -33 -84 -51 -27 -17 -65 -40 -83 -51 -29 -17 -32 -22 -26 -54 4 -19 9 -38 13 -42 5 -5 575 -338 629 -367 15 -8 75 23 332 172 172 101 315 188 318 195 4 13 -119 -48 -148 -72 -8 -7 -44 -29 -80 -48 -86 -46 -114 -62 -120 -69 -3 -3 -18 -13 -35 -21 -16 -9 -53 -29 -81 -44 -28 -16 -66 -37 -85 -48 -19 -10 -44 -27 -55 -38 -19 -17 -22 -17 -28 -3 -3 10 1 18 12 22 9 4 69 37 132 73 63 37 196 113 295 170 165 94 239 143 194 127 -8 -3 -152 -85 -320 -182 -167 -98 -308 -178 -314 -178 -10 1 -632 358 -648 373 -4 4 69 51 163 105 94 54 173 102 176 106 9 16 -13 9 -39 -11 -33 -26 -35 -25 -40 8 -4 26 -4 26 -6 2z m-107 -321 c6 -6 7 -10 1 -7 -25 10 -91 44 -95 49 -3 3 -15 11 -27 18 -13 6 -23 16 -23 21 0 9 125 -61 144 -81z m42 -19 c5 -5 30 -20 54 -32 87 -45 280 -163 280 -172 0 -6 -5 -5 -12 2 -7 7 -19 12 -28 12 -9 0 -25 9 -35 20 -10 11 -22 20 -26 20 -4 0 -28 14 -52 30 -25 17 -48 30 -53 30 -4 0 -22 11 -40 25 -18 14 -38 25 -44 25 -18 0 -70 30 -70 40 0 13 13 13 26 0z m444 -263 c0 -5 -22 4 -50 19 -27 15 -50 31 -50 36 0 10 100 -44 100 -55z"/> <path d="M2205 807 c40 -27 115 -68 115 -63 0 6 -118 76 -128 76 -3 0 2 -6 13 -13z"/> <path d="M2174 702 c1 -109 6 -128 41 -149 11 -7 64 -38 119 -70 54 -32 115 -68 135 -80 34 -21 83 -47 125 -65 15 -7 16 -6 8 4 -6 7 -101 65 -211 128 l-200 115 -1 107 c0 59 -4 109 -8 112 -5 3 -8 -43 -8 -102z"/> <path d="M1605 771 c-3 -6 -21 -11 -39 -11 -17 0 -37 -5 -44 -12 -17 -17 -15 -69 3 -94 8 -12 12 -24 10 -28 -3 -3 -3 -4 0 -3 3 2 23 -12 44 -32 29 -27 40 -47 46 -81 7 -43 18 -60 40 -60 5 0 4 5 -3 12 -18 18 -15 28 6 21 14 -5 15 -4 6 8 -8 10 -6 25 8 57 16 35 32 50 97 88 45 25 81 54 84 65 3 10 3 19 0 19 -10 0 -138 -73 -148 -84 -5 -7 -26 -21 -45 -33 -33 -20 -37 -20 -64 -6 -28 14 -28 17 -12 29 10 7 25 10 33 7 12 -5 12 -7 2 -14 -8 -4 -10 -11 -6 -15 4 -5 18 2 30 15 15 16 18 22 7 21 -30 -4 -46 0 -33 8 8 5 9 13 3 22 -8 12 -10 12 -10 1 0 -21 -30 -38 -56 -33 -53 10 -46 111 7 104 12 -1 26 3 30 9 4 8 11 4 19 -11 6 -12 9 -24 6 -27 -3 -3 4 -19 15 -34 21 -29 52 -38 64 -18 4 6 14 8 22 5 9 -4 13 -1 10 6 -2 7 -11 11 -18 9 -46 -12 -63 -6 -69 25 -9 40 -36 79 -45 65z m46 -238 c-9 -16 -10 -15 -11 8 0 14 3 29 8 33 12 12 14 -22 3 -41z"/> <path d="M1262 745 c0 -16 2 -22 5 -12 2 9 2 23 0 30 -3 6 -5 -1 -5 -18z"/> <path d="M3941 766 c2 -2 15 -9 29 -15 24 -11 24 -11 6 3 -16 13 -49 24 -35 12z"/> <path d="M3573 739 c-46 -29 -41 -36 5 -8 46 28 47 29 36 29 -5 0 -24 -10 -41 -21z"/> <path d="M751 724 c0 -11 3 -14 6 -6 3 7 2 16 -1 19 -3 4 -6 -2 -5 -13z"/> <path d="M3321 724 c0 -11 3 -14 6 -6 3 7 2 16 -1 19 -3 4 -6 -2 -5 -13z"/> <path d="M4016 725 c4 -8 8 -15 10 -15 2 0 4 7 4 15 0 8 -4 15 -10 15 -5 0 -7 -7 -4 -15z"/> <path d="M1030 713 c0 -10 12 -25 28 -34 15 -9 110 -64 211 -122 101 -59 186 -107 188 -107 17 0 143 85 143 96 0 21 -13 17 -77 -21 -32 -19 -61 -35 -65 -35 -4 0 -100 54 -214 120 -114 66 -208 120 -210 120 -2 0 -4 -8 -4 -17z"/> <path d="M2361 716 c2 -2 60 -35 128 -74 l124 -71 -2 -105 c-1 -70 2 -106 10 -111 14 -9 8 211 -7 224 -5 5 -29 20 -54 34 -25 13 -76 43 -115 66 -38 22 -74 41 -79 41 -5 0 -7 -2 -5 -4z"/> <path d="M3335 626 c2 -52 8 -82 17 -87 66 -43 210 -119 225 -119 19 0 433 236 445 254 16 23 7 27 -19 8 -16 -10 -115 -70 -222 -131 -138 -81 -199 -111 -215 -107 -33 9 -219 120 -224 133 -2 7 17 25 43 40 26 16 54 34 63 41 30 22 -18 2 -57 -24 -19 -13 -36 -22 -38 -20 -2 2 -7 23 -12 47 -7 37 -8 32 -6 -35z"/> <path d="M1540 683 c0 -6 8 -17 18 -24 16 -13 16 -13 2 6 -8 11 -16 22 -17 24 -2 2 -3 0 -3 -6z"/> <path d="M2309 670 l-24 -20 28 11 c15 7 27 16 27 21 0 12 -5 10 -31 -12z"/> <path d="M1030 656 c0 -17 4 -25 11 -21 5 4 19 -1 29 -10 10 -9 24 -14 29 -10 6 3 11 1 11 -4 0 -6 5 -11 11 -11 6 0 29 -13 52 -29 54 -37 115 -72 200 -116 37 -19 67 -40 67 -45 0 -6 5 -10 10 -10 6 0 10 7 10 15 0 8 4 14 9 13 14 -5 130 56 136 71 3 8 4 15 2 17 -1 2 -36 -17 -77 -41 l-74 -44 -31 18 c-16 10 -106 62 -200 116 -93 54 -176 102 -182 107 -10 8 -13 4 -13 -16z"/> <path d="M1788 624 c-43 -25 -75 -50 -72 -55 3 -5 12 -5 22 1 9 6 35 22 57 36 22 13 45 27 52 30 9 5 27 34 20 34 -1 0 -37 -21 -79 -46z"/> <path d="M562 625 c0 -16 2 -22 5 -12 2 9 2 23 0 30 -3 6 -5 -1 -5 -18z"/> <path d="M2230 625 c-14 -8 -20 -14 -14 -15 5 0 19 7 30 15 24 18 16 19 -16 0z"/> <path d="M1032 487 l2 -132 3 120 c2 69 8 122 14 126 7 4 5 9 -5 12 -14 6 -16 -9 -14 -126z"/> <path d="M472 540 c0 -19 2 -27 5 -17 2 9 2 25 0 35 -3 9 -5 1 -5 -18z"/> <path d="M3047 501 c3 -11 9 -18 15 -15 5 3 16 0 25 -8 8 -7 37 -24 64 -38 26 -14 91 -51 143 -82 52 -32 107 -63 123 -70 15 -6 37 -19 48 -29 11 -9 45 -30 75 -46 30 -17 76 -43 103 -59 l47 -29 2 -65 1 -65 7 70 c4 45 3 74 -4 81 -11 12 -613 360 -640 370 -11 4 -13 0 -9 -15z"/> <path d="M4022 328 c-198 -114 -310 -184 -304 -190 6 -6 24 -1 48 15 22 13 107 64 189 112 83 48 166 97 185 109 19 11 42 26 51 31 9 6 47 27 83 48 62 36 88 57 69 57 -4 0 -149 -82 -321 -182z"/> <path d="M2215 467 c39 -26 115 -68 115 -63 0 6 -115 76 -126 76 -5 0 0 -6 11 -13z"/> <path d="M372 440 c0 -19 2 -27 5 -17 2 9 2 25 0 35 -3 9 -5 1 -5 -18z"/> <path d="M3054 345 c0 -71 1 -99 3 -62 2 37 2 96 0 130 -2 34 -3 4 -3 -68z"/> <path d="M2734 200 c0 -113 2 -159 3 -102 2 56 2 148 0 205 -1 56 -3 10 -3 -103z"/> <path d="M1440 369 c0 -11 4 -18 10 -14 5 3 7 12 3 20 -7 21 -13 19 -13 -6z"/> <path d="M515 345 c30 -25 30 -25 36 -157 l6 -133 1 138 c2 107 5 137 15 137 8 0 22 10 33 21 l19 22 -32 -17 c-30 -15 -36 -15 -63 -1 -43 22 -49 18 -15 -10z"/> <path d="M1440 170 c0 -95 2 -171 5 -169 6 7 8 330 1 336 -3 4 -6 -72 -6 -167z"/> <path d="M2263 309 c-29 -17 -53 -33 -53 -36 0 -5 89 44 105 58 16 16 1 9 -52 -22z"/> <path d="M852 175 c0 -16 2 -22 5 -12 2 9 2 23 0 30 -3 6 -5 -1 -5 -18z"/> <path d="M2326 175 c4 -8 13 -15 21 -15 12 0 12 2 -1 15 -8 8 -17 15 -20 15 -3 0 -3 -7 0 -15z"/> <path d="M1830 170 c0 -5 5 -10 10 -10 6 0 10 5 10 10 0 6 -4 10 -10 10 -5 0 -10 -4 -10 -10z"/> <path d="M1031 134 c0 -11 3 -14 6 -6 3 7 2 16 -1 19 -3 4 -6 -2 -5 -13z"/> <path d="M2305 80 c3 -5 8 -10 11 -10 2 0 4 5 4 10 0 6 -5 10 -11 10 -5 0 -7 -4 -4 -10z"/> <path d="M2370 45 c0 -2 10 -10 23 -16 20 -11 21 -11 8 4 -13 16 -31 23 -31 12z"/> </g> </svg> 