<svg xmlns="http://www.w3.org/2000/svg" viewBox="0 0 48 48" id="graduation-ceremony"><g><path fill="#374f68" d="M37,29a44.06,44.06,0,0,1-26,0l1.74-13.92H35.26C37.05,29.45,36.8,27.42,37,29Z"></path><path fill="#425b72" d="M36.85,27.84a44,44,0,0,1-20.27-.13,3,3,0,0,1-2.26-3.29l1.17-9.34H35.26Z"></path><path fill="#374f68" d="M47,11,24,19,1,11,24,3Z"></path><polygon fill="#425b72" points="42.69 9.5 24 16 5.31 9.5 24 3 42.69 9.5"></polygon><path fill="#ffde76" d="M5,20V12.74a1,1,0,0,1,.9-1l16-1.56a1,1,0,0,1,.2,2L7,13.65V20A1,1,0,0,1,5,20Z"></path><path fill="#fc6" d="M8,22v4H4V22a2,2,0,0,1,4,0Z"></path><path fill="#ffde76" d="M8,22v3a3,3,0,0,1-3-3,4.1,4.1,0,0,1,.18-1.82A2,2,0,0,1,8,22Z"></path><path fill="#fc6" d="M26,11a2,2,0,1,1-2.82-1.82A2,2,0,0,1,26,11Z"></path><path fill="#ffde76" d="M25.82,11.82a2,2,0,0,1-2.64-2.64A2,2,0,0,1,25.82,11.82Z"></path><path fill="#dad7e5" d="M44.89,35.1l-2,.34-1.39-7.87,2-.35a2,2,0,0,1,2.31,1.62l.7,3.94A2,2,0,0,1,44.89,35.1Z"></path><path fill="#edebf2" d="M46.52,32.87a2,2,0,0,1-3-1.4l-.73-4.13.66-.12a2,2,0,0,1,2.31,1.62C46.54,33,46.52,32.77,46.52,32.87Z"></path><path fill="#dad7e5" d="M7.46,41.7l-2,.34a2,2,0,0,1-2.31-1.62l-.7-3.94a2,2,0,0,1,1-2.09c.39-.22.45-.2,2.6-.57C7.8,43.68,6.72,37.53,7.46,41.7Z"></path><path fill="#edebf2" d="M7.14,39.93,6.49,40a2,2,0,0,1-2.31-1.62c-.73-4.11-.71-3.93-.71-4,.39-.22.45-.2,2.6-.57Z"></path><path fill="#dad7e5" d="M43.07,36.33a1,1,0,0,1-.9,1.17C22.82,39,27,38.27,8.87,43.38a1,1,0,0,1-1.25-.8c-1.07-6.06-.68-3.84-1.7-9.65a1,1,0,0,1,.9-1.17c19.16-1.4,15.67-.91,33.3-5.88a1,1,0,0,1,1.25.8C42.82,34.92,42.7,34.2,43.07,36.33Z"></path><path fill="#edebf2" d="M42.94,35.59c-17.46,1.32-13.84.65-32.07,5.79a1,1,0,0,1-1.25-.8c-1-5.87-.67-3.82-1.57-8.91,17.38-1.3,13.72-.61,32.07-5.79a1,1,0,0,1,1.25.8C42.39,32.48,42,30.44,42.94,35.59Z"></path><path fill="#fc6" d="M30.13,36.68c-1.48,1.25-1.09.65-1.78,2.55-1.9.34-1.26,0-2.81,1.31-1.9-.69-1.19-.61-3.1-.27-1.24-1.48-.64-1.09-2.54-1.78-.34-1.91,0-1.27-1.31-2.82.66-1.81.62-1.1.27-3.09,1.55-1.3,1.12-.73,1.78-2.55,1.87-.31,1.29,0,2.81-1.31,1.9.69,1.19.61,3.1.27,1.24,1.48.64,1.09,2.54,1.78.34,1.91,0,1.27,1.31,2.82C29.74,35.4,29.78,34.69,30.13,36.68Z"></path><path fill="#db5669" d="M29.19,44l-3.13-.47L23.28,45l-.84-4.73c2-.35,1.29-.39,3.1.27,1.48-1.24.82-1,2.81-1.31C29.17,43.83,29,42.89,29.19,44Z"></path><path fill="#f26674" d="M29.05,43.16l-.84.15a4,4,0,0,1-4.63-3.24c.6-.11.19-.18,2,.47,1.48-1.24.82-1,2.81-1.31Z"></path><path fill="#ffde76" d="M30.13,36.68c-1.43,1.21-1.19.93-1.35,1.37A6,6,0,0,1,21.07,30c1.45-.25.9,0,2.38-1.24,1.9.69,1.19.61,3.1.27,1.24,1.48.64,1.09,2.54,1.78.34,1.91,0,1.27,1.31,2.82C29.74,35.4,29.78,34.69,30.13,36.68Z"></path><path fill="#f16f39" d="M26.32,35.45a2,2,0,1,1-2.17-2.79A2,2,0,0,1,26.32,35.45Z"></path><path fill="#f8834b" d="M26.32,35.45a2,2,0,0,1-2.63-2.65A2,2,0,0,1,26.32,35.45Z"></path><path d="M47.33,11.94a1,1,0,0,0,0-1.88c-24.91-8.67-23.17-8.18-23.66-8l-23,8A1,1,0,0,0,0,11c0,.95.55.9,5,2.45v5.73A3,3,0,0,0,3,22v4a1,1,0,0,0,1,1H8a1,1,0,0,0,1-1V22a3,3,0,0,0-2-2.82v-5l4.65,1.61L10,28.88a1,1,0,0,0,.7,1.08c1.92.59,3,.28-4,.8A2,2,0,0,0,4.93,33c-1.1.19-2.13.25-2.94,1.4-.94,1.35-.47,2.37.2,6.18a3,3,0,0,0,2.95,2.48,9.14,9.14,0,0,0,1.52-.22,2,2,0,0,0,1.95,1.56c.41,0-.6.25,12.92-3.56,1.09,6.21.5,6,4.71,3.68L29,45a1,1,0,0,0,1.13-1.17l-.76-4.32,12.85-1a2,2,0,0,0,1.8-2.24l1-.18a3,3,0,0,0,2.43-3.47c-.67-3.84-.6-4.95-1.92-5.88s-2.21-.5-3.24-.32a2,2,0,0,0-2.48-1.49l-2.27.64-1.23-9.8ZM7,25H5V22a1,1,0,0,1,2,0ZM24,4.06,44,11,24,17.94,10.64,13.3l10.65-1a3,3,0,1,0-.19-2l-15,1.45L4,11ZM23,11a1,1,0,0,1,2,0A1,1,0,0,1,23,11Zm.65,18.86a2.83,2.83,0,0,0,2.5.22c1,1.18.63.92,2.06,1.44.26,1.5.07,1.1,1.06,2.27-.53,1.45-.48,1-.22,2.5-1.17,1-.92.62-1.44,2.05-1.52.27-1.11.09-2.27,1.06-1.47-.53-1-.48-2.5-.22-1-1.16-.62-.91-2.06-1.43-.27-1.53-.08-1.12-1.06-2.28.52-1.43.49-1,.22-2.5,1.19-1,.92-.63,1.44-2C22.9,30.65,22.49,30.83,23.65,29.86ZM3.47,36.31a1,1,0,0,1,.81-1.16l1-.17c.65,3.64.41,2.28,1,5.9C3.88,41.31,4.33,41.18,3.47,36.31Zm5.13,6.1c-.28-1.58.81,4.53-1.71-9.66l11.23-.83c-.46.51-.21,1,0,2.15-.45,1.25-.74,1.7-.28,2.25,1,1.23.8.68,1.09,2.34a1,1,0,0,0,.52.7ZM24,43.46l-.42-2.38.34-.06c2,.75,1.62.8,3.27-.57l.33-.06L28,42.77C25.45,42.39,26.24,42.26,24,43.46ZM43.67,28.2a1,1,0,0,1,1.16.81L45.52,33a1,1,0,0,1-.81,1.16l-1,.18-1-5.91Zm-3.28-1.35c.2,1.18-.69-3.88,1.71,9.66l-11.23.83c.42-.47.24-.86,0-2.15.49-1.35.73-1.71.28-2.24-1-1.24-.8-.69-1.09-2.35a1,1,0,0,0-.52-.7Zm-4.76-.74c-9.12,2.57-8.21,2.36-8.32,2.24-.43-.52-.82-.36-2.26-.11-1.35-.49-1.71-.73-2.24-.28-1.23,1-.68.8-2.35,1.09a1,1,0,0,0-.77.67,42.36,42.36,0,0,1-7.59-1.44l1.48-11.85C24.61,20.27,23.76,20,24,20s-.61.27,10.42-3.57Z"></path><path d="M24.49,37.63a3,3,0,1,0-.52-6A3,3,0,0,0,24.49,37.63Zm-.17-4a1,1,0,0,1,.35,2A1,1,0,0,1,24.32,33.65Z"></path></g></svg>